<svg xmlns="http://www.w3.org/2000/svg" width="923" height="270" viewBox="0 0 923 270" version="1.1"><path d="M 152.479 7.854 C 151.827 8.506, 164.103 11.800, 168.750 12.220 C 169.438 12.283, 170 12.761, 170 13.283 C 170 13.806, 170.871 14.006, 171.935 13.727 C 173 13.449, 174.912 13.951, 176.185 14.842 C 177.458 15.734, 178.625 16.333, 178.778 16.172 C 178.931 16.012, 181.406 16.982, 184.278 18.327 C 187.150 19.671, 191.750 21.776, 194.500 23.004 C 197.250 24.231, 200.305 26.082, 201.289 27.118 C 203.191 29.119, 205 29.594, 205 28.093 C 205 25.420, 175.376 11.032, 172.954 12.529 C 172.429 12.853, 172 12.667, 172 12.116 C 172 11.566, 171.100 11.288, 170 11.500 C 168.900 11.712, 168 11.522, 168 11.079 C 168 10.636, 166.988 10.337, 165.750 10.416 C 164.512 10.494, 163.250 10.211, 162.945 9.785 C 162.210 8.763, 153.228 7.105, 152.479 7.854 M 90 12.700 C 83.713 14.970, 72.029 20.572, 68.462 23.026 C 66.085 24.662, 63.905 26, 63.618 26 C 61.559 26, 47.860 37.002, 40 44.968 C 31.112 53.976, 28.901 56.822, 19.776 71 C 15.416 77.775, 10.967 87.553, 8.627 95.500 C 7.656 98.800, 6.226 103.581, 5.451 106.125 C 3.911 111.175, 2.507 122.827, 3.565 121.768 C 3.927 121.407, 4.852 118.048, 5.620 114.305 C 6.388 110.562, 7.162 107.050, 7.340 106.500 C 8.348 103.379, 10.278 96.170, 10.648 94.139 C 10.885 92.840, 11.737 91.121, 12.540 90.317 C 13.343 89.514, 14.056 88.439, 14.125 87.929 C 14.540 84.849, 19.162 75, 20.192 75 C 20.701 75, 20.871 74.601, 20.570 74.113 C 20.269 73.626, 20.692 72.671, 21.511 71.991 C 22.330 71.311, 23 70.341, 23 69.834 C 23 69.327, 24.155 67.695, 25.568 66.206 C 26.980 64.718, 28.961 61.917, 29.970 59.982 C 32.321 55.472, 52.918 35.099, 57.505 32.745 C 59.427 31.759, 61 30.438, 61 29.809 C 61 29.181, 61.273 28.940, 61.606 29.273 C 61.940 29.607, 63.177 28.979, 64.356 27.879 C 65.535 26.778, 68.300 25.016, 70.500 23.964 C 72.700 22.911, 75.175 21.609, 76 21.070 C 76.825 20.531, 80.979 18.607, 85.231 16.795 C 89.483 14.983, 92.970 13.162, 92.981 12.750 C 93.002 11.912, 92.218 11.899, 90 12.700 M 125.736 14.598 C 125.407 14.927, 125.408 15.900, 125.739 16.762 C 126.135 17.795, 125.942 18.082, 125.170 17.605 C 124.461 17.167, 124 17.519, 124 18.500 C 124 19.390, 123.558 19.845, 123.019 19.512 C 121.811 18.765, 110.069 20.818, 108.002 22.137 C 106.946 22.811, 107.241 22.877, 109 22.360 C 110.375 21.956, 113.975 21.524, 117 21.401 C 125.546 21.053, 126.345 20.706, 126.750 17.163 C 127.109 14.022, 126.883 13.451, 125.736 14.598 M 133.736 14.598 C 133.407 14.927, 133.398 15.939, 133.716 16.848 C 134.187 18.192, 134.044 18.267, 132.947 17.250 C 132.206 16.563, 131.015 16, 130.300 16 C 128.691 16, 128.576 19.620, 130.155 20.595 C 130.923 21.070, 131.035 20.866, 130.490 19.985 C 129.899 19.028, 130.125 18.834, 131.304 19.286 C 132.202 19.631, 133.206 19.475, 133.537 18.940 C 133.868 18.405, 134.602 18.254, 135.169 18.604 C 135.849 19.025, 135.837 18.565, 135.135 17.252 C 134.549 16.158, 134.355 14.979, 134.702 14.631 C 135.049 14.284, 135.108 14, 134.833 14 C 134.558 14, 134.064 14.269, 133.736 14.598 M 147.524 19.810 C 146.562 20.772, 146.986 22.127, 148.044 21.473 C 148.618 21.118, 149.762 21.387, 150.586 22.072 C 151.703 22.999, 152.373 23.027, 153.219 22.181 C 153.999 21.401, 154.737 21.367, 155.587 22.072 C 156.434 22.775, 157.030 22.760, 157.485 22.024 C 157.850 21.433, 157.778 21.033, 157.324 21.134 C 156.871 21.235, 155.825 21.058, 155 20.740 C 152.563 19.801, 148.089 19.245, 147.524 19.810 M 205.462 29.062 C 204.615 30.433, 206.951 32.180, 208.750 31.521 C 209.438 31.269, 210 31.427, 210 31.872 C 210 32.317, 211.626 33.838, 213.614 35.252 C 215.601 36.666, 217.751 38.874, 218.392 40.159 C 219.033 41.445, 220.956 43.397, 222.665 44.498 C 224.375 45.599, 226.599 47.713, 227.608 49.195 C 228.617 50.678, 229.599 51.734, 229.791 51.543 C 230.380 50.954, 238 59.648, 238 60.910 C 238 61.562, 239.238 63.273, 240.750 64.711 C 242.262 66.150, 242.825 66.995, 242 66.589 C 240.922 66.059, 240.961 66.232, 242.140 67.206 C 243.042 67.951, 246.109 73.038, 248.956 78.512 C 254.756 89.668, 255.320 90.505, 254.654 86.977 C 253.931 83.149, 250.296 75.258, 247.136 70.658 C 245.565 68.371, 242.673 64.025, 240.710 61 C 237.795 56.510, 220.280 38.524, 214.874 34.470 C 214.118 33.903, 211.853 32.193, 209.840 30.670 C 207.300 28.748, 205.960 28.255, 205.462 29.062 M 128 33.002 C 126.898 33.713, 127.694 34.014, 131 34.137 C 133.475 34.229, 136.173 34.349, 136.996 34.404 C 138.249 34.487, 138.532 37.209, 138.741 51.195 C 138.898 61.648, 138.613 68.121, 137.979 68.513 C 136.656 69.331, 137.716 71, 139.559 71 C 140.763 71, 141 67.887, 141 52.079 L 141 33.159 138.250 32.686 C 133.529 31.873, 129.560 31.996, 128 33.002 M 125.048 51.488 C 124.968 63.597, 125.297 69.653, 126.088 70.606 C 127.476 72.278, 129.418 72.485, 128.409 70.853 C 128.020 70.223, 127.593 62.083, 127.461 52.764 C 127.320 42.824, 126.796 35.396, 126.193 34.793 C 125.488 34.088, 125.128 39.345, 125.048 51.488 M 98.500 39.080 C 94.100 40.676, 89.938 42.747, 89.250 43.682 C 88.563 44.617, 88 45.075, 88 44.699 C 88 43.562, 74.814 50.924, 70 54.748 C 61.693 61.347, 54.961 68.358, 56.198 69.122 C 56.905 69.560, 59.853 67.256, 63.682 63.272 C 67.157 59.658, 70 56.977, 70 57.315 C 70 57.652, 71.042 56.932, 72.315 55.714 C 73.587 54.496, 74.442 53.132, 74.214 52.683 C 73.986 52.234, 74.407 51.994, 75.150 52.149 C 75.892 52.305, 78.300 51.240, 80.500 49.782 C 82.700 48.324, 86.525 46.345, 89 45.384 C 91.475 44.424, 93.831 43.157, 94.235 42.569 C 94.639 41.981, 94.976 41.863, 94.985 42.307 C 94.993 42.750, 96.463 42.348, 98.250 41.414 C 104.233 38.285, 104.963 38, 106.986 38 C 108.094 38, 109 37.550, 109 37 C 109 35.537, 107.389 35.856, 98.500 39.080 M 195.875 38.766 C 197.506 41.813, 206.777 48.170, 207.614 46.815 C 208.038 46.129, 207.859 45.969, 207.155 46.405 C 206.520 46.797, 206 46.659, 206 46.098 C 206 44.275, 201.828 41.129, 200.226 41.743 C 199.371 42.071, 198.924 41.926, 199.233 41.420 C 199.541 40.914, 198.670 39.657, 197.296 38.627 C 194.829 36.778, 194.812 36.779, 195.875 38.766 M 63.982 42.426 C 60.395 44.781, 55.832 49.400, 59 47.470 C 59.825 46.967, 61.138 46.460, 61.917 46.342 C 63.556 46.094, 69.953 39.970, 68.481 40.059 C 67.941 40.091, 65.917 41.157, 63.982 42.426 M 168.527 41.338 C 172.744 44.199, 177 45.871, 177.015 44.673 C 177.026 43.892, 177.276 43.849, 177.765 44.545 C 178.855 46.094, 192.003 54.158, 191.985 53.265 C 191.965 52.277, 190.394 49.793, 189.888 49.950 C 188.502 50.380, 183.120 47.615, 183.656 46.748 C 184.039 46.128, 183.832 45.986, 183.155 46.405 C 182.520 46.797, 182 46.615, 182 46 C 182 45.385, 181.581 45.141, 181.069 45.457 C 180.557 45.774, 179.833 45.538, 179.459 44.934 C 178.624 43.583, 170.444 40, 168.195 40 C 166.841 40, 166.899 40.233, 168.527 41.338 M 153 47.741 C 153 49.934, 154.834 52, 156.782 52 C 157.543 52, 161.287 53.371, 165.104 55.046 C 168.921 56.721, 172.484 57.819, 173.022 57.487 C 173.560 57.154, 174 57.342, 174 57.904 C 174 59.454, 185.879 67.193, 187.100 66.438 C 188.323 65.682, 182.779 62, 180.417 62 C 179.472 62, 179.158 61.520, 179.601 60.750 C 179.997 60.063, 179.996 59.790, 179.599 60.145 C 179.201 60.500, 177.714 59.712, 176.292 58.395 C 174.871 57.078, 173.022 56, 172.183 56 C 171.344 56, 169.947 55.362, 169.079 54.583 C 166.168 51.972, 157.283 49.128, 155.929 50.375 C 155.011 51.219, 154.883 51.188, 155.412 50.250 C 155.800 49.563, 155.615 49, 155 49 C 154.385 49, 154.141 48.581, 154.457 48.069 C 154.774 47.557, 154.575 46.856, 154.016 46.510 C 153.457 46.165, 153 46.719, 153 47.741 M 52.065 51.828 C 49.829 53.872, 47.985 55.984, 47.967 56.522 C 47.922 57.851, 44.391 62, 43.305 62 C 42.825 62, 41.634 63.350, 40.659 65 C 39.138 67.575, 39.102 68, 40.408 68 C 41.245 68, 42.456 67.016, 43.100 65.813 C 44.350 63.477, 45.442 62.021, 48.286 58.892 C 49.269 57.811, 49.836 56.544, 49.547 56.076 C 49.258 55.609, 49.771 55.288, 50.688 55.363 C 51.604 55.438, 53.301 54.117, 54.458 52.427 C 55.615 50.737, 57.111 49.537, 57.781 49.760 C 59.502 50.334, 59.305 49.331, 57.565 48.663 C 56.746 48.349, 54.383 49.709, 52.065 51.828 M 98.578 53.547 C 90.704 57.412, 89.335 58.471, 90.938 59.461 C 91.569 59.852, 91.931 59.576, 91.775 58.824 C 91.616 58.057, 92.221 57.620, 93.213 57.785 C 94.156 57.942, 97.306 56.840, 100.213 55.335 C 103.121 53.831, 105.871 52.701, 106.324 52.825 C 106.778 52.948, 106.834 52.540, 106.449 51.918 C 105.971 51.143, 106.421 50.999, 107.875 51.460 C 109.136 51.860, 110 51.701, 110 51.067 C 110 49.140, 105.617 50.092, 98.578 53.547 M 215.591 56.250 C 218.841 59.688, 222.625 64.052, 224 65.949 C 225.375 67.847, 227.209 70.131, 228.076 71.026 C 228.943 71.921, 229.942 73.406, 230.295 74.326 C 230.648 75.247, 231.622 76, 232.459 76 C 233.812 76, 233.815 75.806, 232.482 74.250 C 231.658 73.287, 231.100 72.264, 231.242 71.975 C 231.666 71.115, 228.563 68.172, 227.750 68.664 C 227.338 68.914, 227 68.358, 227 67.430 C 227 66.501, 224.972 63.853, 222.493 61.544 C 220.014 59.236, 218.216 57.118, 218.496 56.837 C 219.194 56.139, 212.344 50, 210.868 50 C 210.216 50, 212.342 52.813, 215.591 56.250 M 83.500 62.536 C 81.850 63.374, 79.824 64.834, 78.997 65.780 C 78.170 66.726, 75.799 68.767, 73.728 70.315 C 71.657 71.864, 70.229 73.562, 70.556 74.090 C 70.882 74.618, 70.601 74.926, 69.931 74.775 C 68.253 74.396, 62.597 82.507, 63.286 84.303 C 63.762 85.543, 69.816 85.757, 104.314 85.750 L 144.783 85.742 151.664 88.372 C 159.296 91.288, 166.075 96.875, 170.422 103.833 C 174.025 109.598, 182.571 113.704, 192.500 114.440 C 199.492 114.958, 199.496 114.957, 195.500 113.556 C 193.300 112.785, 190.375 112.119, 189 112.077 C 183.610 111.912, 174.711 105.948, 167.578 97.719 C 161.992 91.275, 159.394 89.143, 154.115 86.673 C 146.556 83.136, 147.771 83.213, 97.750 83.083 C 80.287 83.037, 66 82.632, 66 82.182 C 66 80.734, 76.351 70.422, 81.250 66.989 C 83.862 65.159, 86 63.320, 86 62.904 C 86 62.487, 86.787 61.941, 87.750 61.689 C 88.998 61.363, 89.070 61.200, 88 61.122 C 87.175 61.062, 85.150 61.698, 83.500 62.536 M 187 67.514 C 187 68.778, 193.629 73.904, 194.750 73.506 C 195.438 73.262, 196 73.719, 196 74.520 C 196 75.321, 196.787 76.947, 197.750 78.131 C 198.713 79.316, 200.655 81.684, 202.067 83.393 C 203.478 85.102, 205.660 88.199, 206.915 90.277 C 208.169 92.354, 209.714 94.614, 210.348 95.300 C 210.982 95.986, 211.583 96.987, 211.683 97.524 C 211.784 98.061, 213.018 101.537, 214.425 105.250 C 216.511 110.756, 216.708 112, 215.491 112 C 214.671 112, 214 112.450, 214 113 C 214 113.550, 215.125 114, 216.500 114 C 219.724 114, 219.727 112.134, 216.515 104.229 C 213.592 97.036, 204.270 82, 202.733 82 C 202.147 82, 201.940 81.727, 202.274 81.393 C 202.608 81.058, 201.783 79.601, 200.441 78.153 C 199.098 76.705, 198 75.239, 198 74.894 C 198 74.549, 195.901 72.632, 193.336 70.634 C 188.997 67.254, 187 66.270, 187 67.514 M 52.079 72.561 C 52.036 73.145, 51.122 74.565, 50.049 75.718 C 47.027 78.960, 41.693 88.026, 42.394 88.727 C 43.176 89.509, 45.403 86.716, 48.157 81.500 C 49.318 79.300, 50.771 77.169, 51.384 76.765 C 52.020 76.347, 52.069 76.017, 51.500 76 C 50.950 75.983, 51.117 75.578, 51.872 75.100 C 52.626 74.622, 52.999 73.617, 52.701 72.866 C 52.402 72.115, 52.122 71.978, 52.079 72.561 M 234.275 79.500 C 235.606 82.157, 239.016 89.663, 239.500 91 C 240.420 93.545, 243.118 99, 243.456 99 C 244.243 99, 243.092 94.816, 241.915 93.398 C 241.277 92.629, 241.051 92, 241.413 92 C 241.774 92, 241.573 91.071, 240.965 89.935 C 240.357 88.799, 239.679 86.929, 239.457 85.779 C 239.236 84.628, 238.037 82.520, 236.792 81.093 C 235.548 79.667, 234.134 78.050, 233.651 77.500 C 233.167 76.950, 233.448 77.850, 234.275 79.500 M 218.610 82.427 C 218.942 83.292, 219.616 84, 220.107 84 C 220.598 84, 221 84.445, 221 84.989 C 221 85.532, 221.758 86.863, 222.685 87.945 C 223.612 89.027, 224.463 90.544, 224.576 91.315 C 224.942 93.814, 228.864 102, 229.694 102.001 C 230.137 102.001, 230.568 103.171, 230.650 104.601 C 230.733 106.031, 231.322 107.718, 231.960 108.350 C 232.835 109.218, 232.989 109.133, 232.588 108 C 232.296 107.175, 231.829 105.150, 231.550 103.500 C 230.888 99.591, 223.229 84, 221.971 84 C 221.437 84, 221.113 83.464, 221.250 82.809 C 221.387 82.155, 220.714 81.447, 219.754 81.237 C 218.505 80.964, 218.179 81.303, 218.610 82.427 M 27.694 85.233 C 25.368 90.134, 25.571 91.216, 28.052 87.146 C 29.177 85.301, 29.938 83.313, 29.742 82.727 C 29.547 82.142, 28.625 83.269, 27.694 85.233 M 40.182 93.281 C 39.597 93.986, 38.897 95.786, 38.625 97.281 C 38.161 99.841, 39.003 100.536, 42.116 100.163 C 42.455 100.122, 63.965 99.990, 89.916 99.869 C 115.867 99.748, 137.323 99.286, 137.597 98.844 C 137.870 98.401, 116.586 98.034, 90.297 98.029 C 64.009 98.024, 41.657 98.016, 40.628 98.010 C 39.281 98.003, 39.027 97.649, 39.722 96.750 C 40.807 95.348, 42.124 92, 41.591 92 C 41.401 92, 40.766 92.576, 40.182 93.281 M 258.370 103.423 C 258.959 105.305, 259.752 106.653, 260.131 106.419 C 260.893 105.948, 260.701 104.420, 259.544 101.750 C 258.184 98.610, 257.271 99.911, 258.370 103.423 M 153.669 105.727 C 153.386 106.185, 156.832 110.488, 161.327 115.288 C 172.498 127.219, 175.277 128.389, 193 128.631 L 206.500 128.815 194.851 127.973 C 182.086 127.051, 175.878 125.735, 173.616 123.474 C 172.806 122.663, 171.746 122, 171.261 122 C 169.906 122, 164.133 116.054, 160.835 111.260 C 159.207 108.895, 157.442 107.227, 156.913 107.554 C 156.384 107.881, 156.074 107.609, 156.225 106.949 C 156.549 105.536, 154.417 104.516, 153.669 105.727 M 245.639 107 C 246.265 107.825, 247.297 112.550, 247.931 117.500 C 249.660 130.989, 249.005 130.132, 257.331 129.792 L 264.500 129.500 264.623 126 C 264.793 121.167, 263.625 119.723, 263.006 124 L 262.500 127.500 256.500 127.500 C 250.841 127.500, 250.518 127.371, 250.815 125.236 C 251.328 121.551, 247.959 108.204, 246.160 106.798 C 244.738 105.686, 244.663 105.715, 245.639 107 M 133.500 112.714 C 134.600 112.999, 135.831 113.742, 136.235 114.366 C 136.738 115.143, 136.974 115.057, 136.985 114.095 C 136.996 113.034, 137.550 113.156, 139.250 114.595 C 141.489 116.491, 141.492 116.490, 139.790 114.466 C 138.766 113.247, 136.761 112.385, 134.790 112.314 C 132.931 112.248, 132.370 112.422, 133.500 112.714 M 16.694 117.063 C 16.400 118.186, 16.305 120.663, 16.482 122.569 C 16.876 126.812, 14.998 128.090, 8.873 127.743 C 5.238 127.537, 4.489 127.121, 3.937 125 L 3.287 122.500 2.549 125.193 C 1.440 129.244, 2.522 130, 9.437 130 C 16.445 130, 17.738 129.122, 17.537 124.500 C 17.465 122.850, 17.732 120.269, 18.129 118.763 C 18.527 117.258, 18.487 115.801, 18.040 115.525 C 17.593 115.249, 16.987 115.941, 16.694 117.063 M 2.667 131.667 C 2.300 132.033, 2 132.933, 2 133.667 C 2 134.616, 3.801 135.053, 8.250 135.185 L 14.500 135.370 9.250 135.737 C 4.210 136.090, 2.605 137.170, 5.250 138.428 C 5.938 138.755, 5.462 138.828, 4.193 138.590 C 2.292 138.234, 2.094 138.408, 3.065 139.579 C 4.419 141.210, 11.595 141.485, 15.368 140.050 C 17.464 139.253, 17.801 138.580, 17.459 135.875 C 17.234 134.101, 16.477 132.285, 15.775 131.840 C 14.239 130.865, 3.609 130.724, 2.667 131.667 M 251.063 132.172 C 248.958 132.951, 248.188 135, 250 135 C 250.550 135, 251 134.550, 251 134 C 251 133.450, 251.481 133, 252.068 133 C 252.656 133, 252.225 134.280, 251.112 135.843 C 248.288 139.809, 249.887 141.007, 257.950 140.968 C 263.664 140.940, 264.273 140.764, 262.721 139.586 C 261.246 138.468, 261.190 138.141, 262.393 137.679 C 263.291 137.335, 263.639 136.336, 263.306 135.061 C 262.968 133.770, 263.246 133, 264.050 133 C 264.756 133, 265.001 132.667, 264.594 132.261 C 263.608 131.275, 253.665 131.210, 251.063 132.172 M 253 136 C 253 136.550, 255.137 136.993, 257.750 136.985 C 261.185 136.974, 262.085 136.701, 261 136 C 259.023 134.722, 253 134.722, 253 136 M 3.116 144.750 C 3.180 146.262, 3.425 146.780, 3.661 145.900 C 4.019 144.561, 5.265 144.379, 11.280 144.786 C 17.856 145.232, 18.355 145.133, 17.113 143.637 C 16.115 142.434, 14.063 142, 9.378 142 C 3.059 142, 3.001 142.025, 3.116 144.750 M 42.250 142.716 C 43.763 142.945, 46.237 142.945, 47.750 142.716 C 49.263 142.487, 48.025 142.300, 45 142.300 C 41.975 142.300, 40.737 142.487, 42.250 142.716 M 51.333 143.244 C 51.333 144.241, 70.240 144.562, 142.847 144.802 C 193.179 144.968, 234.654 145.286, 235.013 145.508 C 235.373 145.730, 235.465 147.282, 235.220 148.956 C 234.939 150.866, 235.208 152, 235.941 152 C 236.711 152, 237.006 150.380, 236.805 147.250 L 236.500 142.500 143.917 142.244 C 70.155 142.041, 51.333 142.244, 51.333 143.244 M 250.339 143.208 C 249.802 143.919, 249.279 145.850, 249.176 147.500 C 248.867 152.466, 246.823 163.140, 245.072 168.934 C 243.583 173.861, 244.416 173.787, 246.718 168.788 C 248.760 164.352, 250.764 155.466, 251.292 148.500 C 251.471 146.146, 252.091 144.541, 252.798 144.600 C 253.459 144.655, 256.179 144.767, 258.843 144.850 L 263.686 145 262.464 153.750 C 261.792 158.563, 260.497 165.200, 259.587 168.500 C 258.676 171.800, 257.432 176.300, 256.822 178.500 C 255.758 182.332, 246.246 202.963, 245.064 204 C 244.398 204.584, 239.998 211.490, 238.214 214.750 C 237.440 216.166, 237.365 217, 238.014 217 C 239.253 217, 248.644 202.635, 252.793 194.395 C 256.074 187.876, 261.182 172.521, 262.903 164 C 263.514 160.975, 264.124 154.900, 264.257 150.500 L 264.500 142.500 257.907 142.208 C 253.395 142.008, 251.007 142.324, 250.339 143.208 M 30.387 149.082 C 30.601 150.962, 30.827 153.089, 30.888 153.809 C 30.950 154.529, 31.457 154.835, 32.016 154.490 C 32.575 154.144, 32.769 153.435, 32.447 152.914 C 32.125 152.393, 31.640 150.747, 31.370 149.256 C 30.644 145.252, 29.936 145.126, 30.387 149.082 M 2.674 152.750 C 4.234 172.630, 11.328 192.605, 23.043 210.106 C 31.936 223.391, 55.118 246, 59.847 246 C 60.389 246, 60.983 246.346, 61.167 246.768 C 61.736 248.080, 71.272 253.760, 76 255.602 C 78.475 256.567, 81.400 257.924, 82.500 258.618 C 83.600 259.312, 85.625 260.063, 87 260.286 C 88.375 260.510, 90.400 261.029, 91.500 261.440 C 92.600 261.851, 94.715 262.640, 96.199 263.194 C 99.842 264.552, 102.316 263.563, 98.788 262.159 C 97.297 261.565, 94.822 260.873, 93.288 260.622 C 91.755 260.370, 90.388 260.071, 90.250 259.957 C 90.112 259.843, 89.662 259.693, 89.250 259.623 C 88.498 259.496, 78.256 254.702, 74.500 252.720 C 65.950 248.207, 61.449 245.537, 61.158 244.806 C 60.970 244.333, 59.067 243.054, 56.929 241.964 C 49.995 238.426, 32.556 219.954, 24.561 207.678 C 20.557 201.530, 16.947 195.375, 16.540 194 C 16.132 192.625, 14.464 189.092, 12.834 186.149 C 11.203 183.206, 10.119 180.547, 10.426 180.241 C 10.732 179.935, 10.481 179.080, 9.869 178.342 C 9.256 177.604, 8.984 177, 9.263 177 C 9.543 177, 8.867 173.738, 7.761 169.750 C 6.656 165.762, 5.305 159.238, 4.759 155.250 C 3.655 147.188, 2.090 145.312, 2.674 152.750 M 16.359 152.657 C 16.665 154.943, 17.159 157.981, 17.458 159.407 C 17.756 160.833, 18.234 163.125, 18.519 164.500 C 18.805 165.875, 19.418 167, 19.882 167 C 20.754 167, 20.648 164.676, 19.537 159.500 C 19.183 157.850, 18.655 155.150, 18.364 153.500 C 17.498 148.596, 15.715 147.846, 16.359 152.657 M 36.940 172.573 C 35.833 173.906, 36.503 175.845, 41.349 185.332 C 45.767 193.979, 48.816 198.395, 54.782 204.781 C 59.027 209.326, 62.930 213.034, 63.456 213.022 C 63.981 213.010, 62.617 211.313, 60.423 209.250 C 55.488 204.610, 50.813 198.520, 51.590 197.743 C 51.910 197.423, 51.194 196.639, 50 196 C 48.806 195.361, 48.088 194.578, 48.406 194.261 C 48.723 193.944, 48.442 193.032, 47.780 192.235 C 45.118 189.027, 39.001 176.829, 38.998 174.721 C 38.997 173.812, 42.509 173.535, 52.748 173.637 C 64.293 173.752, 65.376 173.646, 59.500 172.976 C 55.650 172.538, 50.700 172.371, 48.500 172.606 C 45.459 172.931, 44.979 172.806, 46.500 172.087 C 48.060 171.349, 47.372 171.125, 43.372 171.070 C 39.862 171.022, 37.833 171.496, 36.940 172.573 M 98.728 171.722 C 100.503 171.943, 103.653 171.946, 105.728 171.730 C 107.802 171.513, 106.350 171.333, 102.500 171.328 C 98.650 171.324, 96.952 171.501, 98.728 171.722 M 168.286 172.429 C 169.764 173.907, 181.458 174.550, 180.564 173.103 C 180.308 172.689, 177.847 172.487, 175.095 172.654 C 172.344 172.822, 169.821 172.519, 169.488 171.980 C 169.154 171.441, 168.426 171, 167.870 171 C 167.313 171, 167.500 171.643, 168.286 172.429 M 185.479 172.033 C 185.274 172.366, 187.332 172.539, 190.054 172.417 C 192.775 172.294, 195.253 172.601, 195.560 173.097 C 195.867 173.594, 203.521 174, 212.569 174 L 229.019 174 226.342 179.250 C 224.869 182.137, 222.995 185.287, 222.177 186.250 C 221.359 187.213, 221.008 188, 221.396 188 C 221.784 188, 220.900 189.575, 219.432 191.500 C 217.964 193.425, 217.154 195.007, 217.631 195.015 C 218.109 195.024, 217.900 195.411, 217.166 195.876 C 216.099 196.553, 216.159 196.847, 217.468 197.349 C 218.368 197.695, 218.853 197.571, 218.546 197.074 C 218.239 196.577, 218.363 196.020, 218.822 195.835 C 219.915 195.396, 226.237 184.514, 228.910 178.470 C 232.111 171.233, 231.674 171.092, 206.677 171.275 C 195.224 171.359, 185.685 171.700, 185.479 172.033 M 243.142 176.111 C 242.640 177.425, 240.665 181.709, 238.753 185.631 C 236.841 189.554, 234.972 193.975, 234.600 195.456 C 234.022 197.762, 234.131 197.959, 235.361 196.825 C 236.152 196.096, 236.633 195.327, 236.432 195.116 C 236.230 194.905, 236.951 193.607, 238.033 192.231 C 239.115 190.856, 240 189.264, 240 188.694 C 240 188.123, 241.157 184.766, 242.570 181.232 C 243.984 177.698, 244.897 174.563, 244.598 174.265 C 244.300 173.967, 243.645 174.798, 243.142 176.111 M 24 180.514 C 24 181.346, 24.401 182.809, 24.890 183.764 C 25.380 184.719, 26.617 187.407, 27.640 189.739 C 28.663 192.070, 29.837 193.982, 30.250 193.989 C 31.441 194.007, 31.122 192.265, 29.670 190.813 C 28.938 190.081, 28.525 188.924, 28.753 188.241 C 28.981 187.558, 28.659 187, 28.039 187 C 27.420 187, 27.005 186.438, 27.119 185.750 C 27.447 183.769, 25.873 179, 24.892 179 C 24.401 179, 24 179.681, 24 180.514 M 62.104 186.914 C 61.211 187.480, 60.979 188.464, 61.462 189.649 C 62.110 191.243, 62.304 191.282, 62.857 189.933 C 63.246 188.985, 64.573 188.429, 66.212 188.526 C 67.704 188.615, 68.686 188.300, 68.393 187.827 C 68.101 187.354, 67.474 187.207, 67 187.500 C 66.526 187.793, 65.856 187.575, 65.510 187.016 C 64.746 185.780, 63.934 185.756, 62.104 186.914 M 78.500 186.801 C 74.650 186.966, 71.086 187.516, 70.579 188.022 C 70.019 188.581, 94.099 188.922, 132.079 188.892 C 171.068 188.861, 193.374 188.502, 191.500 187.935 C 188.700 187.088, 93.944 186.137, 78.500 186.801 M 202.442 186.907 C 202.751 187.405, 202.208 187.606, 201.237 187.352 C 200.266 187.098, 198.353 187.336, 196.986 187.882 C 194.740 188.777, 194.910 188.879, 198.750 188.937 C 201.088 188.971, 202.947 189.338, 202.882 189.750 C 202.543 191.897, 203.199 192.130, 204.996 190.503 C 206.520 189.125, 206.728 188.377, 205.874 187.348 C 204.638 185.859, 201.549 185.461, 202.442 186.907 M 66 195.663 C 66 196.883, 80.197 209.906, 82.250 210.569 C 83.213 210.880, 84 211.629, 84 212.234 C 84 212.839, 84.273 213.060, 84.606 212.727 C 84.940 212.393, 86.035 212.881, 87.039 213.810 C 89.874 216.434, 103.032 222.833, 107.671 223.843 C 111.128 224.596, 111.748 224.507, 111.292 223.318 C 110.989 222.530, 110.169 222.105, 109.469 222.374 C 108.768 222.642, 107.889 222.556, 107.514 222.181 C 107.140 221.806, 106.533 221.479, 106.167 221.453 C 105.800 221.427, 103.250 220.251, 100.500 218.839 C 97.750 217.428, 93.925 215.761, 92 215.135 C 90.075 214.509, 85.125 211.049, 81 207.445 C 70.236 198.041, 66 194.714, 66 195.663 M 195.212 199.247 C 193.499 201.036, 190.388 203.757, 188.299 205.293 C 186.210 206.829, 182.700 209.461, 180.500 211.140 C 176.146 214.465, 167.257 218.758, 159.146 221.452 C 155.856 222.544, 153.946 223.763, 153.849 224.830 C 153.129 232.804, 153.439 236.769, 154.744 236.268 C 155.600 235.940, 155.777 235.377, 155.206 234.806 C 154.223 233.823, 154.740 225.887, 155.848 224.946 C 156.207 224.641, 158.647 223.853, 161.270 223.195 C 166.727 221.824, 181.955 213.511, 186.683 209.321 C 192.731 203.961, 193.833 203.167, 194.415 203.749 C 194.737 204.070, 195 203.725, 195 202.981 C 195 202.237, 195.977 200.589, 197.171 199.318 C 198.364 198.048, 199.113 196.780, 198.834 196.501 C 198.555 196.222, 196.926 197.458, 195.212 199.247 M 132 200.780 C 124.391 201.632, 125 199.876, 125 220.960 C 125 239.810, 126.135 246.365, 127.424 234.965 C 127.798 231.667, 128.055 223.689, 127.996 217.235 C 127.938 210.781, 127.914 204.938, 127.945 204.250 C 127.982 203.409, 129.791 203, 133.473 203 L 138.947 203 138.723 221.500 C 138.579 233.487, 138.852 239.883, 139.500 239.668 C 140.107 239.466, 140.607 231.848, 140.771 220.279 L 141.042 201.224 137.771 200.862 C 135.972 200.663, 133.375 200.626, 132 200.780 M 208.015 206.485 C 206.157 208.402, 204.943 210.277, 205.318 210.652 C 205.693 211.027, 206 210.782, 206 210.108 C 206 209.434, 206.520 209.203, 207.155 209.595 C 207.842 210.021, 208.039 209.872, 207.640 209.227 C 207.270 208.628, 207.905 207.848, 209.061 207.481 C 210.210 207.116, 210.896 206.562, 210.584 206.251 C 210.272 205.939, 210.519 205.080, 211.131 204.342 C 213.332 201.690, 211.324 203.071, 208.015 206.485 M 215.359 219.485 C 210.702 224.277, 210.116 225.277, 212.500 224.362 C 213.325 224.045, 214 223.384, 214 222.893 C 214 222.402, 214.665 222, 215.477 222 C 216.289 222, 217.741 220.762, 218.704 219.250 C 219.666 217.738, 220.914 216.169, 221.477 215.765 C 222.106 215.313, 221.965 215.025, 221.109 215.015 C 220.344 215.007, 217.756 217.018, 215.359 219.485 M 67.506 217.027 C 69.487 220.269, 83.657 229.330, 85.229 228.359 C 85.653 228.096, 86 228.282, 86 228.770 C 86 229.663, 91.849 232.488, 99.750 235.411 C 102.290 236.351, 104 236.572, 104 235.961 C 104 235.398, 103.213 234.687, 102.250 234.380 C 101.287 234.074, 98.250 232.775, 95.500 231.493 C 92.750 230.212, 89.587 228.903, 88.470 228.584 C 87.354 228.266, 83.983 226.422, 80.981 224.487 C 77.978 222.553, 74.959 221.185, 74.272 221.449 C 73.586 221.712, 73.131 221.492, 73.262 220.959 C 73.393 220.426, 71.949 218.992, 70.053 217.773 C 67.913 216.395, 66.948 216.113, 67.506 217.027 M 192.500 220.028 C 189.200 222.213, 186.050 224.349, 185.500 224.775 C 183.845 226.057, 171.782 231.608, 167.500 233.059 C 165.300 233.804, 162.791 234.994, 161.925 235.704 C 161.059 236.413, 159.154 237.092, 157.692 237.213 C 156.230 237.334, 155.403 237.803, 155.854 238.254 C 156.305 238.705, 157.985 238.535, 159.587 237.876 C 161.189 237.216, 162.871 236.761, 163.324 236.863 C 163.778 236.966, 163.834 236.540, 163.449 235.918 C 162.971 235.143, 163.421 234.999, 164.875 235.460 C 166.218 235.887, 167 235.703, 167 234.960 C 167 234.310, 167.692 234.052, 168.552 234.382 C 169.525 234.755, 169.851 234.568, 169.427 233.881 C 168.989 233.173, 169.413 232.992, 170.625 233.370 C 172.848 234.062, 192.628 223.804, 192.262 222.149 C 192.131 221.557, 192.690 221.327, 193.504 221.640 C 194.341 221.961, 195.249 221.514, 195.596 220.609 C 195.934 219.731, 196.725 219.306, 197.355 219.666 C 197.985 220.026, 198.166 219.952, 197.759 219.502 C 197.351 219.052, 197.519 218.080, 198.131 217.342 C 199.800 215.331, 199.060 215.684, 192.500 220.028 M 234.500 219 C 234.840 219.550, 234.718 220, 234.228 220 C 233.738 220, 232.744 221.110, 232.018 222.466 C 231.292 223.822, 230.429 224.769, 230.099 224.571 C 229.770 224.372, 228.920 224.838, 228.211 225.605 C 227.501 226.372, 227.276 227.029, 227.711 227.063 C 228.145 227.098, 227.459 227.544, 226.186 228.055 C 224.913 228.565, 224.152 229.437, 224.495 229.992 C 224.838 230.546, 224.723 231, 224.241 231 C 223.758 231, 221.657 232.518, 219.572 234.373 C 216.853 236.792, 216.138 237.967, 217.045 238.528 C 217.867 239.036, 218.060 238.906, 217.595 238.155 C 217.196 237.508, 217.458 236.990, 218.191 236.977 C 218.911 236.964, 223.759 232.689, 228.965 227.477 C 236.705 219.727, 238.016 218, 236.156 218 C 234.895 218, 234.157 218.445, 234.500 219 M 205 228.167 C 205 228.625, 204.425 229, 203.722 229 C 203.019 229, 201.734 229.787, 200.865 230.750 C 197.740 234.213, 195.092 235.830, 182.547 241.938 C 175.540 245.350, 170.076 248.410, 170.405 248.739 C 170.734 249.067, 172.015 248.834, 173.252 248.221 C 174.488 247.607, 178.948 245.706, 183.163 243.996 C 187.377 242.285, 191.742 240.124, 192.863 239.193 C 193.984 238.262, 197.842 235.475, 201.435 233 C 208.165 228.365, 209.087 227.333, 206.500 227.333 C 205.675 227.333, 205 227.708, 205 228.167 M 79 241.327 C 79 241.797, 87.743 246.080, 89.500 246.470 C 90.050 246.593, 91.625 247.152, 93 247.713 C 106.117 253.066, 121.074 256.307, 122.442 254.093 C 123.292 252.719, 121.979 252.282, 115 251.614 C 107.175 250.864, 96.677 248.417, 92.270 246.314 C 90.197 245.325, 88.177 244.512, 87.782 244.508 C 87.388 244.504, 86.263 243.825, 85.282 243 C 83.595 241.580, 79 240.356, 79 241.327 M 205.970 244.784 C 204.061 246.257, 202.349 247.811, 202.165 248.237 C 201.980 248.664, 201.418 248.758, 200.915 248.447 C 200.412 248.136, 200 248.434, 200 249.108 C 200 249.782, 199.699 250.032, 199.331 249.664 C 198.963 249.297, 197.791 249.784, 196.726 250.748 C 195.661 251.712, 194.618 252.401, 194.408 252.280 C 193.995 252.042, 185.417 255.474, 183.060 256.820 C 182.267 257.273, 181.514 258.184, 181.385 258.846 C 181.256 259.508, 181.380 259.586, 181.660 259.019 C 181.941 258.452, 182.534 258.212, 182.978 258.486 C 184.094 259.176, 195.045 254.228, 196.948 252.175 C 197.801 251.254, 199.175 250.352, 200 250.171 C 200.825 249.990, 202.210 249.203, 203.079 248.421 C 203.947 247.640, 205.085 247, 205.606 247 C 206.667 247, 210.343 243.010, 209.791 242.458 C 209.597 242.264, 207.878 243.311, 205.970 244.784 M 163.739 249.595 C 163.412 249.922, 161.874 250.302, 160.322 250.440 C 155.326 250.883, 147.543 252.132, 146 252.738 C 143.902 253.562, 143.221 253.732, 141.448 253.875 C 140.205 253.975, 139.938 255.194, 140.111 259.987 C 140.287 264.854, 140.577 265.766, 141.664 264.864 C 143.240 263.556, 143.455 262.601, 141.966 263.521 C 141.299 263.933, 141.144 263.156, 141.531 261.330 C 141.861 259.774, 142.213 257.655, 142.315 256.622 C 142.457 255.185, 143.438 254.677, 146.500 254.456 C 156.476 253.734, 165 251.645, 165 249.922 C 165 248.857, 164.584 248.749, 163.739 249.595 M 164.738 262.692 C 163.769 262.945, 163.195 263.507, 163.464 263.942 C 164.100 264.971, 169 264.035, 169 262.883 C 169 261.965, 167.741 261.908, 164.738 262.692 M 102 264 C 102 264.550, 102.338 264.947, 102.750 264.882 C 103.162 264.816, 103.725 264.851, 104 264.958 C 108.004 266.519, 116 267.072, 116 265.789 C 116 265.226, 114.454 264.962, 112.500 265.190 C 110.575 265.415, 109 265.186, 109 264.683 C 109 264.179, 108.100 264.002, 107.001 264.289 C 105.902 264.577, 104.750 264.404, 104.442 263.906 C 103.689 262.687, 102 262.752, 102 264" stroke="none" fill="#e4e4e4" fill-rule="evenodd"/><path d="M 130.243 5.157 C 128.242 7.158, 128.750 11.711, 131.163 13.402 C 132.353 14.235, 133.815 14.638, 134.413 14.298 C 135.011 13.958, 135.178 14.036, 134.785 14.471 C 134.392 14.907, 134.549 16.158, 135.135 17.252 C 135.837 18.565, 135.849 19.025, 135.169 18.604 C 134.602 18.254, 133.868 18.405, 133.537 18.940 C 133.206 19.475, 132.202 19.631, 131.304 19.286 C 130.213 18.868, 129.912 19.048, 130.395 19.830 C 131.336 21.353, 135.265 21.335, 136.800 19.800 C 137.460 19.140, 138 17.635, 138 16.455 C 138 14.142, 134.767 10.566, 133.669 11.664 C 133.301 12.032, 133 11.101, 133 9.595 C 133 7.060, 133.121 6.979, 134.636 8.493 C 136.800 10.657, 139.008 8.828, 137.377 6.222 C 136.046 4.097, 131.919 3.481, 130.243 5.157 M 115.500 6.603 C 114.400 6.832, 111.034 7.521, 108.020 8.133 C 105.006 8.745, 101.935 9.978, 101.196 10.873 C 100.457 11.768, 100.137 11.938, 100.485 11.250 C 100.833 10.563, 100.627 10, 100.028 10 C 99.428 10, 98.678 10.675, 98.362 11.500 C 98.045 12.325, 97.358 13, 96.834 13 C 96.310 13, 96.220 12.438, 96.633 11.750 C 97.143 10.901, 96.842 10.940, 95.692 11.872 C 94.761 12.627, 93.993 12.852, 93.985 12.372 C 93.976 11.893, 93.639 11.963, 93.235 12.529 C 92.831 13.095, 89.125 15.036, 85 16.842 C 80.875 18.648, 76.825 20.559, 76 21.088 C 75.175 21.617, 72.700 22.911, 70.500 23.964 C 68.300 25.016, 65.535 26.778, 64.356 27.879 C 63.177 28.979, 61.940 29.607, 61.606 29.273 C 61.273 28.940, 61 29.181, 61 29.809 C 61 30.438, 59.427 31.759, 57.505 32.745 C 52.918 35.099, 32.321 55.472, 29.970 59.982 C 28.961 61.917, 26.980 64.718, 25.568 66.206 C 24.155 67.695, 23 69.327, 23 69.834 C 23 70.341, 22.330 71.311, 21.511 71.991 C 20.692 72.671, 20.269 73.626, 20.570 74.113 C 20.871 74.601, 20.701 75, 20.192 75 C 19.162 75, 14.540 84.849, 14.125 87.929 C 14.056 88.439, 13.343 89.514, 12.540 90.317 C 11.737 91.121, 10.885 92.840, 10.648 94.139 C 10.278 96.170, 8.348 103.379, 7.340 106.500 C 7.162 107.050, 6.374 110.638, 5.588 114.473 C 4.803 118.309, 3.674 121.609, 3.080 121.807 C 2.486 122.005, 2.007 122.917, 2.015 123.833 C 2.028 125.200, 2.192 125.246, 2.925 124.088 C 3.611 123.003, 3.897 123.234, 4.159 125.088 C 4.476 127.331, 4.885 127.487, 10 127.311 C 17.730 127.046, 18.040 126.943, 16.994 124.989 C 16.500 124.066, 16.248 122.003, 16.434 120.405 C 16.620 118.807, 16.823 116.952, 16.886 116.281 C 16.949 115.611, 17.675 115.322, 18.500 115.638 C 19.490 116.018, 20.026 115.583, 20.077 114.357 C 20.119 113.336, 20.374 111.600, 20.644 110.500 C 20.915 109.400, 21.266 107.825, 21.426 107 C 21.586 106.175, 22.283 104.150, 22.975 102.500 C 23.666 100.850, 24.292 98.307, 24.366 96.848 C 24.440 95.390, 24.914 94.451, 25.420 94.762 C 25.929 95.075, 26.046 94.561, 25.681 93.612 C 25.319 92.668, 25.394 92.125, 25.847 92.405 C 26.735 92.954, 30.392 86.059, 29.621 85.288 C 29.366 85.032, 28.430 86.100, 27.542 87.662 C 26.036 90.308, 25.972 90.331, 26.598 88 C 27.491 84.676, 29.999 81.013, 30.003 83.027 C 30.005 83.837, 31.806 81.800, 34.006 78.500 C 36.206 75.200, 37.799 71.952, 37.546 71.282 C 37.294 70.612, 37.587 69.755, 38.198 69.378 C 38.936 68.921, 39.025 69.162, 38.463 70.095 C 37.777 71.233, 37.959 71.222, 39.418 70.037 C 40.505 69.153, 40.777 68.426, 40.104 68.201 C 38.684 67.728, 41.922 62, 43.609 62 C 44.256 62, 45.047 61.321, 45.365 60.491 C 45.684 59.661, 46.519 59.098, 47.222 59.241 C 47.991 59.397, 48.390 58.688, 48.223 57.464 C 47.875 54.903, 54.856 48.559, 58.060 48.524 C 59.305 48.511, 60.550 47.825, 60.825 47 C 61.270 45.667, 61.113 45.667, 59.413 47 C 57.614 48.410, 57.589 48.387, 58.985 46.614 C 60.473 44.725, 67.367 40, 68.635 40 C 69.006 40, 68.505 40.889, 67.521 41.976 C 66.538 43.063, 65.434 43.768, 65.069 43.542 C 64.703 43.317, 63.751 43.554, 62.952 44.069 C 61.814 44.803, 61.933 44.940, 63.500 44.701 C 66.452 44.250, 75.198 37.740, 73.915 36.947 C 73.224 36.520, 73.424 36.051, 74.468 35.651 C 75.424 35.284, 75.850 35.434, 75.493 36.011 C 75.157 36.555, 75.359 37, 75.941 37 C 76.523 37, 77 36.550, 77 36 C 77 35.450, 77.506 35.112, 78.125 35.250 C 78.744 35.387, 79.477 34.875, 79.755 34.111 C 80.093 33.179, 79.837 32.983, 78.975 33.515 C 78.115 34.047, 77.936 33.912, 78.435 33.106 C 79.004 32.185, 79.509 32.177, 80.589 33.074 C 81.668 33.970, 82 33.967, 82 33.063 C 82 32.414, 82.404 32.132, 82.897 32.437 C 83.391 32.742, 86.653 31.658, 90.147 30.029 C 93.641 28.400, 101 25.879, 106.500 24.427 C 112 22.975, 116.725 21.550, 117 21.261 C 117.512 20.722, 111.197 21.705, 108.179 22.634 C 106.763 23.070, 106.735 22.997, 108.002 22.164 C 110.706 20.389, 122.018 18.770, 123.445 19.954 C 125.171 21.387, 127.246 19.016, 126.013 17.020 C 125.501 16.193, 125.550 14.840, 126.131 13.754 C 126.677 12.735, 126.983 10.686, 126.812 9.201 C 126.528 6.741, 126.099 6.486, 122 6.343 C 119.525 6.257, 116.600 6.374, 115.500 6.603 M 140.492 7.250 C 139.810 9.164, 140.402 15.990, 141.250 15.996 C 142.555 16.003, 142.059 18.999, 140.750 19.015 C 139.888 19.026, 139.949 19.315, 140.946 19.946 C 141.840 20.511, 143.127 20.467, 144.317 19.830 C 145.638 19.123, 146.042 19.124, 145.604 19.831 C 145.254 20.398, 145.378 21.115, 145.879 21.425 C 146.380 21.735, 147.027 21.372, 147.316 20.618 C 147.824 19.295, 151.395 19.352, 155 20.740 C 155.825 21.058, 156.871 21.235, 157.324 21.134 C 157.778 21.033, 157.859 21.419, 157.505 21.992 C 157.151 22.564, 156.330 22.701, 155.681 22.295 C 155.031 21.890, 153.600 21.431, 152.500 21.276 C 148.118 20.659, 153.586 22.927, 160.473 24.584 C 164.338 25.514, 168.287 26.678, 169.250 27.172 C 170.474 27.800, 171.005 27.684, 171.015 26.785 C 171.026 25.882, 171.318 25.945, 172 27 C 172.862 28.333, 172.978 28.333, 173.048 27 C 173.091 26.175, 173.553 26.564, 174.073 27.864 C 174.828 29.748, 175.305 29.992, 176.420 29.066 C 177.516 28.157, 178.110 28.314, 179.160 29.794 C 180.779 32.075, 184.494 34.173, 185.369 33.298 C 185.716 32.951, 186 33.222, 186 33.901 C 186 34.662, 186.735 34.902, 187.916 34.527 C 188.970 34.192, 190.118 34.382, 190.468 34.948 C 190.854 35.573, 190.396 35.753, 189.302 35.407 C 187.718 34.906, 187.738 35.030, 189.471 36.440 C 190.556 37.322, 192.117 37.785, 192.941 37.469 C 193.765 37.153, 194.144 37.189, 193.783 37.550 C 193.423 37.911, 194.333 39.242, 195.805 40.509 C 197.680 42.121, 198.967 42.553, 200.098 41.948 C 201.214 41.350, 202.375 41.700, 203.856 43.081 C 206.493 45.537, 206.798 47.807, 204.250 46.012 C 203.287 45.334, 204.016 46.144, 205.870 47.812 C 207.723 49.480, 209.832 50.618, 210.556 50.340 C 212.106 49.745, 219.195 55.876, 218.415 57.137 C 218.122 57.612, 218.378 58, 218.985 58 C 219.591 58, 219.955 58.736, 219.794 59.636 C 219.632 60.536, 220.225 61.387, 221.111 61.528 C 223.604 61.922, 227 65.240, 227 67.281 C 227 68.415, 226.558 68.845, 225.845 68.405 C 225.114 67.952, 224.963 68.131, 225.435 68.894 C 226.008 69.821, 226.544 69.799, 227.776 68.799 C 229.139 67.691, 229.281 67.751, 228.738 69.199 C 228.253 70.494, 228.506 70.747, 229.801 70.262 C 231.292 69.703, 231.330 69.835, 230.107 71.337 C 229.342 72.278, 229.004 73.337, 229.357 73.691 C 229.711 74.044, 230 73.730, 230 72.992 C 230 72.079, 230.593 72.266, 231.854 73.575 C 232.906 74.667, 233.294 75.770, 232.751 76.123 C 231.574 76.888, 233.725 81.288, 234.917 80.552 C 236.032 79.862, 238.972 83.257, 239.461 85.798 C 239.681 86.938, 240.321 88.730, 240.883 89.782 C 241.610 91.140, 241.558 92.070, 240.703 92.994 C 239.773 93.998, 239.772 94.140, 240.700 93.619 C 242.091 92.836, 244.473 96.590, 243.117 97.428 C 241.991 98.123, 244.075 104.321, 246.238 106.711 C 248.087 108.753, 251.304 121.741, 250.820 125.206 C 250.522 127.342, 250.898 127.521, 256.262 127.800 C 262.914 128.147, 262.987 128.060, 263.291 119.421 C 263.443 115.132, 263.156 113.569, 262.250 113.750 C 261.563 113.887, 261 113.362, 261 112.582 C 261 111.802, 260.744 110.339, 260.431 109.332 C 260.118 108.324, 260.552 108.625, 261.395 110 C 262.239 111.375, 262.929 112.050, 262.929 111.500 C 262.929 110.092, 260.091 105.282, 259.979 106.500 C 259.928 107.050, 259.324 105.925, 258.635 104 C 257.293 100.249, 257.515 98.618, 259.039 101.029 C 259.700 102.074, 259.974 102.129, 259.985 101.219 C 259.993 100.514, 259.325 99.678, 258.500 99.362 C 257.675 99.045, 257 98.358, 257 97.834 C 257 97.310, 257.430 97.148, 257.955 97.472 C 258.481 97.797, 258.210 95.686, 257.353 92.781 C 255.691 87.148, 255.339 86.500, 253.940 86.500 C 253.449 86.500, 250.975 82.473, 248.442 77.551 C 245.909 72.628, 243.086 67.983, 242.168 67.226 C 241.022 66.281, 240.969 66.082, 242 66.589 C 242.825 66.995, 242.263 66.150, 240.750 64.711 C 238.308 62.388, 237.454 60.277, 237.906 57.676 C 237.985 57.222, 237.634 57.108, 237.126 57.422 C 236.617 57.737, 234.806 56.404, 233.101 54.462 C 231.395 52.520, 230 51.232, 230 51.600 C 230 51.968, 228.996 50.972, 227.768 49.385 C 226.541 47.798, 225.188 46.349, 224.762 46.165 C 224.336 45.980, 224.285 45.348, 224.648 44.760 C 225.053 44.105, 224.833 43.985, 224.080 44.450 C 222.687 45.311, 218 41.388, 218 39.361 C 218 38.651, 217.087 37.582, 215.972 36.985 C 214.857 36.388, 214.251 35.403, 214.627 34.795 C 215.030 34.142, 214.853 33.973, 214.191 34.382 C 213.576 34.762, 212.269 34.269, 211.286 33.286 C 210.304 32.304, 208.938 31.455, 208.250 31.400 C 205.196 31.156, 204.818 30.916, 205.342 29.551 C 205.700 28.619, 205.418 28.286, 204.551 28.619 C 203.810 28.903, 202.371 28.263, 201.352 27.197 C 199.700 25.467, 186.927 19, 185.162 19 C 184.778 19, 182.722 17.816, 180.592 16.369 C 178.462 14.921, 177.089 14.335, 177.540 15.065 C 177.992 15.796, 176.849 15.316, 175 14 C 173.151 12.684, 171.972 12.145, 172.378 12.803 C 172.839 13.549, 172.491 14, 171.452 14 C 170.475 14, 169.997 13.449, 170.298 12.667 C 170.579 11.933, 170.197 11.333, 169.449 11.333 C 168.700 11.333, 168.317 11.703, 168.596 12.155 C 168.875 12.607, 168.408 12.710, 167.558 12.384 C 166.707 12.057, 166.320 11.275, 166.698 10.645 C 167.165 9.865, 166.910 9.883, 165.897 10.703 C 164.731 11.645, 163.554 11.600, 160.455 10.496 C 158.280 9.722, 155.461 9.068, 154.191 9.044 C 152.921 9.020, 152.128 8.601, 152.430 8.114 C 153.125 6.990, 149.606 6.031, 144.719 6.014 C 142.587 6.006, 140.743 6.545, 140.492 7.250 M 291.461 33.250 C 291.199 33.938, 291.100 77.475, 291.242 130 L 291.500 225.500 327.500 225.768 C 363.414 226.035, 363.521 226.029, 372.348 223.502 C 383.853 220.209, 388.967 217.168, 397.500 208.550 C 413.487 192.403, 417.945 174.754, 417.970 127.500 C 417.991 89.231, 414.945 73.302, 404.636 57.771 C 396.680 45.785, 385.106 37.864, 370.060 34.107 C 362.284 32.166, 358.874 32, 326.778 32 C 299.826 32, 291.829 32.283, 291.461 33.250 M 726 129 L 726 226 761.888 226 C 797.417 226, 797.865 225.974, 806.602 223.442 C 830.614 216.484, 845.110 198.681, 850.045 170.088 C 852.433 156.255, 852.696 102.357, 850.442 88.717 C 847.507 70.960, 840.986 57.830, 830.092 47.747 C 822.838 41.033, 814.680 36.759, 804.060 34.107 C 796.285 32.166, 792.873 32, 760.810 32 L 726 32 726 129 M 126.591 35.287 C 126.961 36.454, 127.363 44.854, 127.483 53.954 L 127.702 70.500 132.858 70.643 C 135.694 70.721, 138.306 70.314, 138.662 69.738 C 139.077 69.067, 138.805 68.995, 137.905 69.537 C 136.754 70.231, 136.724 70.107, 137.741 68.851 C 138.639 67.740, 138.914 62.814, 138.738 51.004 L 138.495 34.690 133.997 34.332 C 131.524 34.135, 128.694 33.792, 127.709 33.570 C 126.280 33.248, 126.054 33.595, 126.591 35.287 M 555 34.065 C 520.743 40.096, 500.924 67.674, 505.213 103.344 C 507.078 118.857, 512.693 131.663, 521.457 140.395 C 530.226 149.130, 539.813 152.954, 561.782 156.476 C 588.041 160.687, 589.938 161.583, 589.986 169.800 C 590.038 178.428, 581.545 181.989, 560.300 182.243 C 554.110 182.318, 548.735 182.068, 548.356 181.689 C 547.977 181.310, 546.653 181, 545.413 181 C 542.088 181, 526.460 175.277, 520.314 171.808 C 517.378 170.151, 514.419 169.012, 513.738 169.277 C 513.057 169.542, 511.667 172.851, 510.650 176.629 C 509.632 180.408, 508.225 185.525, 507.522 188 C 506.820 190.475, 505.767 194.300, 505.182 196.500 C 504.598 198.700, 503.452 202.750, 502.637 205.500 C 499.776 215.149, 499.672 217.364, 502.012 218.799 C 506.110 221.313, 519.780 225.852, 531.577 228.616 C 542.458 231.166, 545.117 231.404, 562 231.341 C 577.608 231.282, 581.737 230.937, 588.410 229.136 C 607.920 223.868, 620.392 215.205, 630.625 199.812 C 637.475 189.508, 639.454 182.174, 639.479 167 C 639.497 156.564, 639.119 153.363, 637.192 147.611 C 630.059 126.323, 613.517 115.086, 584 111.480 C 569.558 109.716, 554.193 103.914, 552.163 99.459 C 549.092 92.718, 551.891 85.061, 558.376 82.466 C 562.556 80.794, 580 80.572, 580 82.192 C 580 82.636, 580.614 83, 581.363 83 C 582.113 83, 588.241 85.714, 594.981 89.031 C 606.452 94.676, 607.321 94.948, 608.585 93.281 C 609.328 92.301, 609.951 90.924, 609.968 90.220 C 609.986 89.516, 612.049 80.568, 614.553 70.336 C 617.058 60.103, 618.970 50.592, 618.803 49.198 C 618.594 47.453, 617.255 45.952, 614.500 44.375 C 608.480 40.928, 598.245 37.157, 590.454 35.515 C 581.465 33.620, 562.041 32.826, 555 34.065 M 109 36.991 C 109 37.791, 107.959 38.074, 106.053 37.794 C 104.432 37.557, 103.335 37.734, 103.616 38.188 C 103.897 38.642, 103.311 39.271, 102.313 39.586 C 101.316 39.900, 99.263 40.822, 97.750 41.635 C 96.237 42.448, 94.993 42.750, 94.985 42.307 C 94.976 41.863, 94.639 41.981, 94.235 42.569 C 93.831 43.157, 91.475 44.424, 89 45.384 C 86.525 46.345, 82.700 48.324, 80.500 49.782 C 78.300 51.240, 75.892 52.305, 75.150 52.149 C 74.407 51.994, 73.986 52.234, 74.214 52.683 C 74.442 53.132, 73.587 54.496, 72.315 55.714 C 71.042 56.932, 70 57.652, 70 57.315 C 70 56.977, 67.188 59.600, 63.750 63.144 C 59.446 67.580, 56.910 69.463, 55.604 69.191 C 54.181 68.895, 53.866 69.209, 54.343 70.451 C 54.715 71.420, 54.568 71.851, 53.989 71.493 C 53.445 71.157, 53 71.809, 53 72.941 C 53 74.073, 52.523 75, 51.941 75 C 51.359 75, 51.203 74.480, 51.595 73.845 C 52.048 73.114, 51.869 72.963, 51.106 73.435 C 50.179 74.008, 50.201 74.544, 51.201 75.776 C 52.316 77.149, 52.245 77.279, 50.698 76.699 C 49.651 76.306, 49.143 76.423, 49.486 76.977 C 50.597 78.776, 44.300 89, 42.081 89 C 41.421 89, 41.160 89.450, 41.500 90 C 41.840 90.550, 41.690 91, 41.166 91 C 40.642 91, 39.931 91.739, 39.584 92.641 C 39.071 93.979, 39.222 94.061, 40.398 93.084 C 41.594 92.092, 41.749 92.242, 41.301 93.958 C 40.666 96.386, 39.007 97.712, 38.985 95.809 C 38.974 94.858, 38.704 94.910, 38 96 C 37.467 96.825, 37.024 97.725, 37.015 98 C 37.006 98.275, 59.725 98.386, 87.501 98.248 C 126.142 98.054, 137.943 98.275, 137.751 99.186 C 137.610 99.855, 139.124 100.660, 141.207 101.024 C 143.247 101.380, 144.682 101.295, 144.398 100.836 C 144.114 100.376, 144.598 100, 145.472 100 C 146.347 100, 147.321 100.672, 147.636 101.494 C 147.952 102.316, 148.632 102.727, 149.149 102.408 C 150.363 101.658, 153.148 103.952, 152.431 105.112 C 152.130 105.599, 152.922 105.885, 154.192 105.749 C 155.668 105.590, 156.401 105.977, 156.225 106.824 C 156.074 107.553, 156.384 107.881, 156.913 107.554 C 157.442 107.227, 159.207 108.895, 160.835 111.260 C 164.133 116.054, 169.906 122, 171.261 122 C 171.746 122, 172.806 122.663, 173.616 123.474 C 174.427 124.284, 176.809 125.410, 178.910 125.976 C 184.179 127.395, 209.946 129.051, 224.750 128.923 C 238.474 128.804, 237.571 129.448, 236.364 120.640 C 235.961 117.698, 235.229 116, 234.364 116 C 233.614 116, 233 115.523, 233 114.941 C 233 114.359, 233.498 114.190, 234.107 114.566 C 235.532 115.447, 234.281 111.115, 232.500 109 C 231.805 108.175, 230.910 106.431, 230.511 105.125 C 229.954 103.300, 230.100 102.915, 231.143 103.462 C 231.889 103.853, 231.511 103.347, 230.302 102.337 C 228.412 100.757, 224.103 92.435, 224.038 90.237 C 224.026 89.832, 223.306 88.670, 222.437 87.656 C 221.569 86.642, 221.096 85.193, 221.385 84.438 C 221.675 83.682, 221.413 82.755, 220.802 82.378 C 220.129 81.962, 219.972 82.146, 220.405 82.845 C 220.797 83.480, 220.690 84, 220.166 84 C 218.734 84, 217.873 81.011, 219.281 80.930 C 219.952 80.891, 219.679 80.536, 218.676 80.141 C 217.673 79.745, 216.847 78.989, 216.841 78.461 C 216.835 77.932, 216.363 76.938, 215.793 76.250 C 215.051 75.357, 215.134 75, 216.081 75 C 216.809 75, 215.671 73.223, 213.550 71.051 C 211.429 68.879, 209.260 67.192, 208.730 67.301 C 208.199 67.410, 207.635 66.721, 207.474 65.770 C 207.164 63.925, 196.823 53.879, 196.029 54.651 C 195.770 54.903, 196.220 55.527, 197.029 56.039 C 197.838 56.551, 198.050 56.969, 197.500 56.969 C 195.614 56.969, 193.517 55.083, 193.509 53.378 C 193.504 52.440, 192.937 51.483, 192.249 51.253 C 191.429 50.977, 191.222 51.415, 191.648 52.526 C 192.082 53.656, 190.002 52.783, 185.399 49.904 C 181.605 47.531, 178.169 45.120, 177.765 44.545 C 177.280 43.855, 177.025 43.908, 177.015 44.702 C 177.006 45.455, 175.115 44.926, 171.957 43.288 C 168.291 41.386, 167.267 40.421, 168.207 39.755 C 169.049 39.158, 168.511 39.055, 166.666 39.459 C 164.679 39.895, 164.043 39.740, 164.537 38.940 C 165.060 38.094, 164.711 38.084, 163.181 38.903 C 161.660 39.717, 160.934 39.703, 160.406 38.848 C 159.962 38.130, 160.129 37.962, 160.845 38.405 C 161.480 38.797, 162 38.662, 162 38.104 C 162 36.874, 155.556 35.538, 154.065 36.460 C 152.707 37.299, 152.666 45.676, 154.016 46.510 C 154.575 46.856, 154.774 47.557, 154.457 48.069 C 154.141 48.581, 154.385 49, 155 49 C 155.615 49, 155.800 49.563, 155.412 50.250 C 154.883 51.188, 155.011 51.219, 155.929 50.375 C 157.283 49.128, 166.168 51.972, 169.079 54.583 C 169.947 55.362, 171.375 56, 172.252 56 C 173.129 56, 175.196 57.350, 176.846 59 C 178.496 60.650, 180.582 62, 181.482 62 C 182.382 62, 182.833 62.461, 182.485 63.025 C 182.136 63.588, 182.222 63.949, 182.676 63.827 C 183.129 63.704, 184.536 63.956, 185.803 64.386 C 187.771 65.054, 187.916 65.402, 186.803 66.776 C 186.022 67.740, 185.964 68.106, 186.660 67.689 C 188.253 66.734, 191.139 67.966, 190.340 69.259 C 189.983 69.837, 190.141 70.031, 190.690 69.691 C 192.283 68.707, 203.543 80.124, 202.252 81.414 C 201.930 81.736, 202.140 82, 202.718 82 C 203.971 82, 207.333 86.895, 207.333 88.719 C 207.333 89.424, 207.557 89.777, 207.830 89.504 C 208.629 88.704, 212.103 95.024, 211.448 96.085 C 211.120 96.615, 211.392 96.926, 212.053 96.775 C 213.299 96.490, 219 109, 219 112.020 C 219 113.565, 217.832 113.699, 207.250 113.359 C 198.800 113.088, 196.062 113.269, 197.500 114.006 C 198.964 114.756, 197.623 114.882, 192.500 114.476 C 182.738 113.702, 174.008 109.558, 170.529 104.046 C 169.098 101.780, 168.239 99.423, 168.618 98.808 C 169.018 98.162, 168.859 97.969, 168.243 98.350 C 167.657 98.712, 165.252 97.213, 162.899 95.019 C 160.316 92.611, 155.878 89.982, 151.702 88.386 L 144.783 85.742 104.314 85.750 C 69.816 85.757, 63.762 85.543, 63.286 84.303 C 62.597 82.507, 68.253 74.396, 69.931 74.775 C 70.601 74.926, 70.882 74.618, 70.556 74.090 C 70.229 73.562, 71.598 71.883, 73.597 70.358 C 75.597 68.833, 78.611 66.298, 80.296 64.723 C 82.156 62.986, 84.076 62.048, 85.182 62.337 C 86.183 62.599, 86.770 62.438, 86.487 61.978 C 86.203 61.519, 86.990 60.998, 88.235 60.821 C 89.481 60.645, 90.500 59.829, 90.500 59.009 C 90.500 57.297, 96.854 53.872, 98.802 54.535 C 99.589 54.802, 99.821 54.519, 99.388 53.819 C 98.905 53.038, 99.231 52.875, 100.388 53.319 C 101.332 53.681, 101.870 53.598, 101.583 53.135 C 100.955 52.118, 105.322 50, 108.047 50 C 109.121 50, 110.014 50.563, 110.032 51.250 C 110.050 51.954, 110.705 51.652, 111.532 50.559 C 113.305 48.214, 113.544 37.454, 111.845 36.405 C 111.062 35.920, 110.963 36.142, 111.537 37.095 C 112.258 38.292, 112.133 38.296, 110.692 37.128 C 109.422 36.098, 109 36.064, 109 36.991 M 306 128.945 C 306 193.906, 306.260 211.006, 307.250 211.030 C 307.938 211.046, 320.818 211.033, 335.874 211 C 362.705 210.942, 363.409 210.889, 371.374 208.288 C 378.647 205.914, 380.182 204.944, 386 199.045 C 393.123 191.824, 396.261 186.311, 399.369 175.564 C 401.226 169.139, 401.443 165.151, 401.763 131.504 C 402.097 96.372, 402.006 94.053, 399.956 85.504 C 397.120 73.676, 392.922 65.843, 385.486 58.500 C 380.670 53.745, 377.966 51.981, 372.455 50 C 365.717 47.578, 364.572 47.490, 335.750 47.195 L 306 46.890 306 128.945 M 740 128.893 C 740 193.550, 740.263 210.861, 741.250 211.143 C 741.938 211.339, 755.550 211.275, 771.500 211 C 799.188 210.523, 800.794 210.389, 807 208.053 C 814.940 205.065, 825.462 195.240, 829.028 187.486 C 834.993 174.517, 835.377 171.392, 835.790 132.500 C 836.189 94.865, 835.695 88.121, 831.762 77.500 C 830.744 74.750, 829.818 72.050, 829.705 71.500 C 829.592 70.950, 829.245 70.275, 828.934 70 C 828.623 69.725, 826.947 67.411, 825.210 64.858 C 819.934 57.101, 813.939 52.575, 805.050 49.638 C 797.177 47.036, 796.685 47, 768.535 47 L 740 47 740 128.893 M 559 48.590 C 541.497 51.792, 530.226 59.840, 523.696 73.797 C 520.708 80.183, 520.563 81.068, 520.633 92.500 C 520.736 109.635, 523.710 119.560, 531.523 128.845 C 537.063 135.428, 545.661 138.378, 571.500 142.560 C 591.884 145.858, 601.496 150.957, 604.526 160.078 C 607.638 169.448, 605.011 180.944, 598.342 187.140 C 595.379 189.893, 587 194.516, 587 193.398 C 587 193.044, 586.377 193.272, 585.616 193.903 C 584.855 194.535, 581.856 195.285, 578.951 195.569 C 576.045 195.854, 573.309 196.309, 572.869 196.581 C 571.958 197.144, 553.044 197.137, 548.500 196.572 C 546.850 196.366, 544.011 196.154, 542.191 196.099 C 540.371 196.045, 539.102 195.644, 539.370 195.210 C 539.639 194.775, 538.203 194.351, 536.179 194.268 C 534.156 194.185, 530.760 193.388, 528.633 192.496 C 523.779 190.462, 522.415 190.981, 521.621 195.170 C 521.273 197.002, 520.412 199.625, 519.707 201 C 517.304 205.686, 518.090 208.143, 522.500 209.729 C 532.157 213.205, 540.310 215.002, 551.593 216.143 C 587.914 219.816, 613.670 207.226, 622.611 181.428 C 625.128 174.163, 624.851 159.238, 622.060 151.843 C 616.345 136.695, 607.457 130.903, 584 127.038 C 565.961 124.066, 549.180 118.705, 543.832 114.206 C 538.649 109.844, 535.682 102.549, 535.614 94 C 535.562 87.525, 535.954 85.771, 538.481 81.167 C 544.238 70.677, 550.398 67.416, 567.503 65.804 C 581.100 64.523, 582.423 64.727, 592.388 69.644 C 595.077 70.971, 597.409 71.925, 597.570 71.763 C 597.731 71.602, 598.764 68.112, 599.865 64.007 C 601.288 58.700, 601.563 56.178, 600.816 55.278 C 598.427 52.399, 583.852 48.914, 572.548 48.519 C 566.472 48.306, 560.375 48.338, 559 48.590 M 323.667 67.667 C 323.300 68.033, 323 95.933, 323 129.667 L 323 191 341.750 190.990 C 359.285 190.981, 360.824 190.829, 365.500 188.648 C 371.381 185.903, 377.317 180.259, 380.140 174.726 C 384.229 166.711, 385.184 158.184, 385.321 128.500 C 385.490 92.006, 384.245 86.119, 374.172 75.738 C 366.838 68.179, 362.446 67, 341.629 67 C 332.116 67, 324.033 67.300, 323.667 67.667 M 757.459 68.250 C 757.196 68.938, 757.098 96.725, 757.241 130 L 757.500 190.500 775 190.803 C 786.225 190.997, 793.926 190.689, 796.477 189.945 C 805.340 187.358, 813.032 179.564, 816.339 169.822 C 818.820 162.514, 819.369 154.536, 819.391 125.500 C 819.408 102.923, 819.126 97.435, 817.667 92 C 814.660 80.796, 807.762 72.646, 798.212 69.012 C 793.646 67.274, 790.541 67, 775.431 67 C 762.358 67, 757.816 67.316, 757.459 68.250 M 338.981 81.750 C 338.970 82.162, 338.964 103.650, 338.966 129.500 L 338.971 176.500 346.999 176.791 C 358.652 177.213, 363.149 175.053, 366.787 167.290 L 369.500 161.500 369.500 129.500 C 369.500 94.360, 369.191 92.064, 363.676 86.240 C 361.978 84.447, 358.994 82.537, 357.044 81.996 C 352.896 80.843, 339.009 80.655, 338.981 81.750 M 772.990 81.500 C 772.984 81.775, 772.974 103.263, 772.967 129.250 L 772.954 176.500 780.991 176.791 C 792.653 177.212, 797.149 175.055, 800.787 167.290 L 803.500 161.500 803.500 129 C 803.500 93.481, 803.344 92.344, 797.637 86.240 C 795.960 84.447, 792.994 82.537, 791.044 81.996 C 787.425 80.990, 773.008 80.594, 772.990 81.500 M 128.250 99.716 C 129.762 99.945, 132.238 99.945, 133.750 99.716 C 135.262 99.487, 134.025 99.300, 131 99.300 C 127.975 99.300, 126.737 99.487, 128.250 99.716 M 66.720 112.763 L 32.940 113.027 31.911 115.734 C 31.345 117.223, 31.091 119.241, 31.347 120.219 C 31.603 121.198, 31.473 122.207, 31.059 122.463 C 29.810 123.235, 30.036 128.998, 31.317 129.026 C 37.094 129.155, 133.181 128.718, 135.375 128.552 C 140.557 128.163, 143.201 118.302, 139.115 114.604 C 136.934 112.630, 124.475 112.313, 66.720 112.763 M 264.104 132.926 C 263.337 133.406, 262.980 134.507, 263.313 135.373 C 263.660 136.276, 263.249 137.321, 262.349 137.825 C 260.962 138.601, 260.986 138.781, 262.558 139.384 C 265.027 140.331, 266.203 138.807, 265.823 135.154 C 265.577 132.791, 265.168 132.261, 264.104 132.926 M 1 136.429 C 1 138.393, 1.337 139.968, 1.750 139.930 C 3.340 139.781, 6.434 138.137, 5.250 138.070 C 4.563 138.032, 4 137.518, 4 136.929 C 4 136.339, 3.325 135.182, 2.500 134.357 C 1.167 133.024, 1 133.254, 1 136.429 M 250.163 134.589 C 248.113 136.909, 249.522 139, 253.135 139 C 256.875 139, 256.551 138.106, 252.696 137.787 C 250.182 137.579, 250.126 137.456, 251.550 135.284 C 253.221 132.734, 252.238 132.241, 250.163 134.589 M 30.655 142.750 C 29.896 143.980, 30.583 149.352, 31.786 151.600 C 32.522 152.976, 32.568 154.032, 31.920 154.680 C 31.378 155.222, 31.222 156.416, 31.574 157.333 C 32.165 158.872, 39.509 159.006, 127.357 159.077 C 179.686 159.119, 223.400 159.337, 224.500 159.562 C 227.373 160.151, 235.072 158.925, 234.484 157.973 C 234.211 157.532, 234.553 156.981, 235.244 156.748 C 236.228 156.417, 236.203 155.965, 235.128 154.663 C 234.373 153.748, 234.148 153, 234.628 153.001 C 235.489 153.001, 235.703 146.369, 234.868 145.535 C 234.632 145.298, 193.207 144.969, 142.815 144.802 C 92.422 144.636, 51.376 144.201, 51.602 143.836 C 51.827 143.470, 49.084 143.020, 45.504 142.836 C 41.925 142.651, 38.997 142.853, 38.998 143.285 C 38.999 143.717, 38.046 143.560, 36.879 142.935 C 35.389 142.138, 34.961 142.127, 35.438 142.900 C 35.812 143.505, 35.668 144, 35.118 144 C 34.568 144, 33.840 143.550, 33.500 143 C 32.770 141.819, 31.309 141.691, 30.655 142.750 M 2.100 145.250 C 2.045 146.762, 2.397 148, 2.883 148 C 3.368 148, 4.212 151.262, 4.759 155.250 C 5.305 159.238, 6.656 165.762, 7.761 169.750 C 8.867 173.738, 9.543 177, 9.263 177 C 8.984 177, 9.256 177.604, 9.869 178.342 C 10.481 179.080, 10.732 179.935, 10.426 180.241 C 10.119 180.547, 11.203 183.206, 12.834 186.149 C 14.464 189.092, 16.132 192.625, 16.540 194 C 16.947 195.375, 20.557 201.530, 24.561 207.678 C 32.639 220.082, 50.016 238.437, 57.104 242.053 C 59.880 243.469, 60.985 244.597, 60.594 245.615 C 60.280 246.434, 60.456 246.836, 60.986 246.509 C 62.090 245.826, 74.111 252.011, 73.525 252.960 C 73.312 253.304, 74.020 253.651, 75.097 253.732 C 78.143 253.962, 84.967 257.244, 84.379 258.196 C 84.089 258.666, 84.222 258.985, 84.676 258.906 C 86.569 258.577, 88.083 259.057, 87.603 259.833 C 87.320 260.292, 87.723 260.667, 88.500 260.667 C 89.277 260.667, 89.637 260.222, 89.302 259.679 C 88.919 259.060, 89.216 259.020, 90.095 259.570 C 90.868 260.054, 92.530 260.591, 93.788 260.764 C 97.677 261.299, 100.999 262.890, 101.015 264.225 C 101.026 265.128, 101.300 265.074, 101.954 264.040 C 102.742 262.795, 103.207 262.868, 105.111 264.540 C 106.339 265.618, 107.015 265.938, 106.613 265.250 C 106.158 264.472, 106.471 264, 107.441 264 C 108.298 264, 109 264.360, 109 264.799 C 109 265.239, 110.575 265.415, 112.500 265.190 C 114.444 264.963, 116 265.227, 116 265.784 C 116 266.335, 116.698 267.054, 117.552 267.382 C 118.593 267.781, 118.874 267.570, 118.405 266.739 C 117.860 265.772, 118.003 265.775, 119.053 266.750 C 119.794 267.438, 121.592 268, 123.048 268 C 125.638 268, 125.701 267.846, 125.899 261.090 C 126.107 253.949, 125.094 251.847, 122.486 254.012 C 121.530 254.805, 119.318 254.968, 115.780 254.504 C 110.233 253.778, 93.206 248.395, 91.510 246.832 C 90.965 246.330, 92.484 246.612, 94.885 247.460 C 97.287 248.307, 99.757 248.965, 100.376 248.922 C 100.994 248.880, 99.250 248.039, 96.500 247.055 C 93.750 246.070, 91.050 245.604, 90.500 246.019 C 89.950 246.433, 87.106 245.632, 84.181 244.238 C 81.255 242.844, 79.333 241.412, 79.910 241.055 C 80.506 240.687, 79.670 239.646, 77.978 238.646 C 76.338 237.677, 74.536 237.169, 73.973 237.517 C 73.411 237.864, 73.074 237.553, 73.225 236.824 C 73.377 236.092, 72.723 235.561, 71.761 235.637 C 70.804 235.712, 70.201 235.483, 70.421 235.128 C 70.886 234.376, 57.986 224.509, 56.500 224.481 C 55.950 224.470, 55.500 224.148, 55.500 223.765 C 55.500 223.382, 53.198 220.691, 50.385 217.785 C 47.572 214.878, 43.386 209.900, 41.083 206.723 C 38.643 203.356, 36.437 201.230, 35.794 201.627 C 35.123 202.042, 34.975 201.850, 35.416 201.136 C 36.368 199.596, 32.251 192.971, 30.700 193.547 C 29.642 193.940, 28.664 192.252, 24.882 183.500 C 24.407 182.400, 24.046 180.600, 24.081 179.500 C 24.116 178.400, 23.921 176.600, 23.649 175.500 C 23.376 174.400, 23.112 173.050, 23.061 172.500 C 23.011 171.950, 22.533 172.175, 22 173 C 21.138 174.333, 21.020 174.333, 20.939 173 C 20.888 172.175, 20.696 170.710, 20.511 169.745 C 20.327 168.780, 20.586 168.244, 21.088 168.554 C 21.590 168.864, 22 168.641, 22 168.059 C 22 167.477, 21.373 167, 20.607 167 C 18.986 167, 18 164.867, 18 161.359 C 18 159.741, 18.401 159.129, 19.155 159.595 C 19.876 160.041, 20.037 159.869, 19.585 159.138 C 19.187 158.494, 18.443 158.226, 17.931 158.543 C 17.419 158.859, 16.983 158.529, 16.962 157.809 C 16.941 157.089, 16.673 154.759, 16.365 152.631 C 15.978 149.959, 16.144 148.971, 16.902 149.440 C 17.526 149.825, 18 149.420, 18 148.500 C 18 147.472, 17.544 147.156, 16.750 147.633 C 15.901 148.143, 15.940 147.842, 16.872 146.692 C 18.125 145.148, 17.819 144.994, 13.372 144.926 C 10.693 144.885, 7.488 144.663, 6.250 144.432 C 4.640 144.132, 3.972 144.508, 3.900 145.756 C 3.834 146.911, 3.530 146.655, 3 145 L 2.199 142.500 2.100 145.250 M 251.784 144.682 C 251.554 145.132, 251.269 147.300, 251.152 149.500 C 250.690 158.148, 248.029 167.503, 244.629 172.431 C 243.517 174.042, 243.193 174.999, 243.910 174.555 C 245.447 173.606, 244.865 176.006, 241.893 182.877 C 240.852 185.285, 240 187.811, 240 188.492 C 240 189.173, 239.115 190.856, 238.033 192.231 C 236.951 193.607, 236.230 194.905, 236.432 195.116 C 236.633 195.327, 236.118 196.128, 235.286 196.896 C 233.960 198.118, 233.855 197.995, 234.434 195.896 C 235.055 193.647, 235.020 193.623, 233.858 195.500 C 233.178 196.600, 232.594 197.711, 232.560 197.968 C 232.527 198.226, 231.488 199.529, 230.250 200.864 C 229.012 202.200, 228 203.976, 228 204.813 C 228 205.649, 227.702 206.036, 227.339 205.672 C 226.975 205.308, 225.625 206.559, 224.339 208.452 C 221.798 212.191, 221.141 214.720, 223.532 211.559 C 224.339 210.491, 225 210.099, 225 210.686 C 225 211.274, 224.325 212.315, 223.500 213 C 222.675 213.685, 222 213.910, 222 213.500 C 222 213.090, 221.352 213.293, 220.559 213.951 C 219.767 214.608, 219.394 215.862, 219.729 216.737 C 220.131 217.785, 219.944 218.084, 219.181 217.612 C 218.453 217.162, 218.221 217.413, 218.557 218.288 C 219.240 220.067, 216.481 222.398, 214.564 221.663 C 213.630 221.304, 213.285 221.579, 213.608 222.422 C 213.887 223.148, 213.391 224.020, 212.506 224.360 C 211.490 224.749, 211.144 224.576, 211.569 223.889 C 212.619 222.189, 208.601 224.563, 206.918 226.637 C 206.010 227.755, 205.950 228.114, 206.750 227.633 C 207.438 227.220, 207.993 227.246, 207.985 227.691 C 207.976 228.136, 205.029 230.525, 201.435 233 C 197.842 235.475, 193.984 238.262, 192.863 239.193 C 191.742 240.124, 187.377 242.277, 183.163 243.977 C 178.948 245.676, 174.719 247.502, 173.764 248.033 C 171.040 249.550, 169.404 249.164, 171.559 247.514 C 173.325 246.162, 173.184 246.128, 170 247.142 C 168.075 247.754, 166.013 248.855, 165.419 249.589 C 164.031 251.298, 159.898 252.863, 155.199 253.457 C 153.165 253.715, 149.722 254.209, 147.550 254.556 C 143.831 255.150, 143.682 255.079, 145.002 253.343 C 145.992 252.041, 146.015 251.844, 145.080 252.672 C 144.352 253.316, 143.249 253.728, 142.628 253.586 C 142.008 253.444, 141.834 253.515, 142.242 253.745 C 142.650 253.974, 142.493 255.079, 141.892 256.201 C 141.062 257.753, 141.087 258.064, 142 257.500 C 142.921 256.931, 142.936 257.251, 142.065 258.879 C 141.440 260.046, 141.186 261, 141.500 261 C 141.814 261, 141.531 262.012, 140.871 263.250 C 139.741 265.371, 139.783 265.415, 141.586 264.017 C 143.436 262.584, 143.442 262.603, 141.750 264.596 C 140.787 265.730, 140 267.020, 140 267.462 C 140 268.746, 156.320 267.095, 157.192 265.724 C 157.619 265.051, 157.983 264.950, 158 265.500 C 158.017 266.050, 158.467 265.825, 159 265 C 159.542 264.161, 159.976 264.010, 159.985 264.656 C 159.993 265.316, 160.854 265.589, 161.989 265.293 C 163.083 265.007, 163.761 264.422, 163.496 263.993 C 162.890 263.014, 167.755 261.730, 169.046 262.528 C 169.571 262.853, 170 262.615, 170 262 C 170 261.385, 170.450 261.160, 171 261.500 C 171.550 261.840, 172.007 261.529, 172.015 260.809 C 172.026 259.858, 172.296 259.910, 173 261 C 173.704 262.090, 173.974 262.142, 173.985 261.191 C 173.993 260.471, 174.419 260.141, 174.931 260.457 C 175.443 260.774, 176.144 260.575, 176.490 260.016 C 177.409 258.530, 180.244 258.751, 179.485 260.250 C 179.137 260.938, 179.492 260.719, 180.275 259.766 C 181.057 258.812, 182.063 258.362, 182.509 258.766 C 182.955 259.169, 182.990 258.926, 182.585 258.224 C 182.094 257.371, 182.849 256.600, 184.863 255.898 C 186.520 255.320, 189.452 254.044, 191.377 253.063 C 193.967 251.742, 195.192 251.567, 196.086 252.389 C 196.974 253.206, 197.125 253.199, 196.658 252.363 C 196.308 251.738, 196.702 250.662, 197.534 249.972 C 198.809 248.914, 198.953 249.014, 198.454 250.609 C 198.036 251.944, 198.265 251.830, 199.233 250.219 C 199.987 248.964, 200.918 248.251, 201.302 248.635 C 201.686 249.019, 202 248.760, 202 248.060 C 202 247.319, 202.650 247.035, 203.552 247.382 C 204.406 247.709, 204.850 247.567, 204.540 247.065 C 204.230 246.563, 205.332 245.188, 206.988 244.008 C 208.645 242.829, 210 242.344, 210 242.932 C 210 243.519, 209.475 244, 208.833 244 C 208.192 244, 208.003 244.337, 208.415 244.748 C 208.827 245.160, 209.726 244.728, 210.413 243.788 C 211.101 242.848, 212.884 241.614, 214.377 241.047 C 215.870 240.479, 216.958 239.385, 216.796 238.614 C 216.410 236.789, 221.813 231.766, 223.224 232.638 C 223.871 233.039, 224.021 232.844, 223.595 232.155 C 223.203 231.520, 223.385 231, 224 231 C 224.615 231, 224.821 230.520, 224.458 229.933 C 224.096 229.346, 224.739 228.620, 225.888 228.319 C 227.037 228.018, 227.684 227.297, 227.325 226.716 C 226.922 226.065, 227.291 225.898, 228.285 226.279 C 229.472 226.735, 229.735 226.472, 229.279 225.285 C 228.909 224.320, 229.070 223.925, 229.679 224.302 C 230.240 224.648, 231.292 223.822, 232.018 222.466 C 232.744 221.110, 233.738 220, 234.228 220 C 234.718 220, 234.840 219.550, 234.500 219 C 234.160 218.450, 234.809 218, 235.941 218 C 237.073 218, 237.927 217.662, 237.839 217.250 C 237.468 215.527, 242.541 206.227, 245.067 204 C 246.249 202.958, 255.761 182.324, 256.822 178.500 C 257.432 176.300, 258.676 171.800, 259.587 168.500 C 260.497 165.200, 261.792 158.563, 262.464 153.750 L 263.686 145 259.425 145 C 257.081 145, 254.497 144.744, 253.683 144.432 C 252.869 144.119, 252.014 144.232, 251.784 144.682 M 449.406 168.353 C 439.264 171.682, 432.934 177.351, 428.894 186.719 C 427.259 190.509, 426.909 193.054, 427.202 199 C 427.648 208.049, 429.722 212.773, 436.030 219.107 C 450.705 233.842, 475.530 229.635, 484.932 210.821 C 490.823 199.032, 488.515 185.515, 478.985 175.985 C 476.682 173.682, 472.831 170.928, 470.425 169.864 C 464.714 167.338, 454.692 166.617, 449.406 168.353 M 884.734 168.030 C 866.082 172.714, 855.918 192.452, 863.422 209.420 C 872.334 229.571, 897.886 234.245, 913.543 218.588 C 919.648 212.483, 922.009 206.459, 921.978 197.072 C 921.926 181.449, 910.119 168.764, 894.500 167.550 C 891.200 167.294, 886.806 167.509, 884.734 168.030 M 673.490 170.016 C 673.144 170.575, 672.481 170.797, 672.015 170.509 C 671.549 170.221, 669.893 170.471, 668.334 171.063 C 666.775 171.656, 665.500 172.010, 665.500 171.850 C 665.500 171.691, 663.451 172.970, 660.946 174.693 C 655.908 178.159, 651.516 183.889, 649.444 189.698 C 647.350 195.568, 647.664 206.659, 650.075 212 C 652.031 216.333, 659.501 225, 661.280 225 C 661.754 225, 662.778 225.635, 663.554 226.411 C 664.359 227.216, 665.898 227.578, 667.139 227.253 C 668.540 226.887, 669.078 227.065, 668.652 227.755 C 668.260 228.388, 668.707 228.709, 669.745 228.541 C 670.710 228.385, 672.058 228.700, 672.739 229.242 C 674.873 230.938, 687.081 229.648, 692.127 227.192 C 702.906 221.947, 708.974 212.298, 708.990 200.376 C 709.006 188.619, 705.236 181.010, 696.370 174.910 C 689.476 170.167, 675.274 167.129, 673.490 170.016 M 46.500 172.128 C 45.028 172.794, 45.555 172.920, 48.500 172.606 C 50.700 172.371, 55.650 172.538, 59.500 172.976 C 65.376 173.646, 64.293 173.752, 52.748 173.637 C 42.509 173.535, 38.997 173.812, 38.998 174.721 C 39.001 176.738, 45.008 188.819, 47.661 192.143 C 48.256 192.890, 48.620 194.256, 48.470 195.181 C 48.302 196.214, 48.698 196.669, 49.497 196.363 C 50.213 196.088, 51.138 196.414, 51.553 197.086 C 52.079 197.937, 51.882 198.058, 50.905 197.483 C 50.075 196.995, 50.217 197.476, 51.250 198.657 C 53.286 200.985, 53.553 202.441, 51.750 201.387 C 51.063 200.985, 51.357 201.634, 52.405 202.828 C 54.678 205.419, 55.824 205.746, 53.886 203.250 C 53.138 202.287, 55.056 203.975, 58.147 207 C 61.239 210.025, 63.609 212.772, 63.415 213.105 C 63.221 213.437, 64.245 214.787, 65.692 216.105 C 67.139 217.422, 67.936 217.837, 67.465 217.027 C 66.922 216.095, 67.872 216.369, 70.053 217.773 C 71.949 218.992, 73.393 220.426, 73.262 220.959 C 73.131 221.492, 73.586 221.712, 74.272 221.449 C 75.515 220.972, 86.327 227.337, 85.570 228.100 C 85.351 228.320, 86.371 228.587, 87.836 228.693 C 89.301 228.799, 92.661 230.036, 95.303 231.443 C 97.945 232.849, 100.657 234, 101.331 234 C 102.004 234, 103.343 234.919, 104.304 236.043 C 105.266 237.166, 106.511 237.802, 107.070 237.456 C 107.630 237.111, 108.683 237.322, 109.411 237.926 C 111.785 239.896, 113.125 236.698, 112.800 229.837 C 112.518 223.886, 112.361 223.519, 110.221 223.818 C 108.967 223.993, 106.267 223.587, 104.221 222.917 C 99.459 221.357, 86 213.871, 86 212.782 C 86 212.327, 87.125 212.691, 88.500 213.592 C 92.892 216.470, 91.178 214.465, 86.250 210.961 C 83.638 209.104, 82.118 208.353, 82.872 209.292 C 83.689 210.309, 83.814 211, 83.179 211 C 81.754 211, 68 199.087, 68 197.852 C 68 197.319, 68.450 197.160, 69 197.500 C 70.628 198.506, 70.140 197.358, 68.308 195.872 C 67.158 194.940, 66.857 194.901, 67.367 195.750 C 67.790 196.455, 67.627 197, 66.992 197 C 66.349 197, 66.119 196.202, 66.455 195.141 C 66.796 194.068, 66.402 192.748, 65.523 192.019 C 63.896 190.669, 63.368 187.491, 64.931 188.457 C 65.443 188.774, 66.149 188.568, 66.500 188 C 66.851 187.432, 67.670 187.300, 68.319 187.706 C 69.976 188.741, 72.104 188.977, 71.538 188.062 C 71.279 187.643, 75.665 187.063, 81.284 186.774 C 96.910 185.970, 187.794 186.849, 191.381 187.840 C 193.226 188.349, 195.571 188.333, 197.008 187.801 C 198.363 187.300, 200.266 187.098, 201.237 187.352 C 202.208 187.606, 202.751 187.405, 202.442 186.907 C 201.549 185.461, 204.638 185.859, 205.874 187.348 C 206.724 188.373, 206.554 189.093, 205.165 190.350 C 204.160 191.260, 203.078 191.744, 202.760 191.427 C 202.443 191.109, 201.886 191.783, 201.524 192.925 C 201.162 194.066, 200.446 195, 199.933 195 C 199.420 195, 199 195.605, 199 196.345 C 199 197.085, 198.100 198.505, 197 199.500 C 195.900 200.495, 195 201.990, 195 202.822 C 195 203.653, 194.737 204.070, 194.415 203.749 C 193.833 203.167, 192.731 203.961, 186.683 209.321 C 181.955 213.511, 166.727 221.824, 161.270 223.195 C 155.301 224.693, 155.228 224.759, 154.886 229 C 154.731 230.925, 154.269 232.965, 153.859 233.534 C 153.020 234.697, 153.261 237.594, 154.280 238.614 C 154.650 238.983, 155.525 238.813, 156.226 238.237 C 156.927 237.660, 159.005 236.953, 160.844 236.666 C 162.684 236.379, 164.484 235.815, 164.844 235.413 C 165.205 235.011, 164.689 234.973, 163.698 235.329 C 162.531 235.749, 162.133 235.593, 162.569 234.888 C 162.940 234.289, 164.447 234.039, 165.918 234.334 C 167.390 234.628, 169.248 234.419, 170.047 233.869 C 171.127 233.126, 170.858 233.018, 169 233.450 C 166.721 233.980, 168.388 233.113, 180.500 227.468 C 182.700 226.443, 184.725 225.306, 185 224.942 C 185.893 223.759, 191.728 221.066, 192.373 221.540 C 192.718 221.793, 192.781 221.706, 192.513 221.347 C 192.077 220.761, 197.720 216, 198.849 216 C 199.103 216, 198.495 216.900, 197.500 218 C 196.505 219.100, 195.991 220, 196.358 220 C 196.725 220, 200.057 217.016, 203.763 213.369 C 207.468 209.722, 209.527 207.242, 208.337 207.857 C 207.148 208.473, 205.946 209.545, 205.666 210.239 C 205.387 210.932, 205.122 211.026, 205.079 210.446 C 205.036 209.867, 206.668 207.842, 208.706 205.946 C 210.745 204.051, 211.758 203.361, 210.956 204.413 C 209.675 206.095, 209.680 206.266, 211 205.834 C 211.825 205.564, 212.645 204.359, 212.821 203.157 C 212.998 201.954, 213.561 201.229, 214.071 201.544 C 214.582 201.860, 215 201.143, 215 199.952 C 215 198.438, 215.451 197.959, 216.500 198.362 C 217.325 198.678, 218.034 198.614, 218.077 198.219 C 218.119 197.823, 218.304 196.710, 218.489 195.745 C 218.703 194.623, 218.405 194.245, 217.662 194.695 C 217.023 195.082, 217.760 193.734, 219.301 191.700 C 220.841 189.665, 221.784 188, 221.396 188 C 221.008 188, 221.359 187.213, 222.177 186.250 C 222.995 185.287, 224.869 182.138, 226.342 179.250 L 229.019 174 212.451 174 C 199.479 174, 196.038 173.729, 196.601 172.750 C 196.997 172.063, 196.985 171.801, 196.575 172.168 C 196.165 172.536, 194.594 172.406, 193.083 171.879 C 191.284 171.252, 189.396 171.279, 187.611 171.958 C 185.855 172.625, 185.105 172.639, 185.502 171.997 C 185.841 171.449, 185.165 171, 184 171 C 182.572 171, 182.127 171.407, 182.633 172.250 C 183.214 173.217, 183.057 173.238, 181.942 172.343 C 180.163 170.915, 49.636 170.708, 46.500 172.128 M 169 173.198 C 169 173.582, 171.738 173.883, 175.085 173.867 C 178.432 173.851, 180.896 173.563, 180.560 173.227 C 179.706 172.372, 169 172.345, 169 173.198 M 449.604 184.266 C 439.785 189.896, 439.455 204.388, 449 210.818 C 451.970 212.818, 453.451 213.117, 458.783 212.788 C 464.447 212.439, 465.427 212.040, 468.733 208.733 C 472.053 205.414, 472.435 204.469, 472.755 198.783 C 473.185 191.136, 471.087 187.105, 465.079 184.040 C 459.897 181.397, 454.472 181.476, 449.604 184.266 M 884.500 183.871 C 878.819 187.399, 876.695 190.595, 876.278 196.242 C 875.801 202.691, 877.994 207.446, 883 210.818 C 885.970 212.818, 887.451 213.117, 892.783 212.788 C 898.408 212.442, 899.438 212.028, 902.625 208.841 C 905.615 205.852, 906.296 204.338, 906.876 199.391 C 907.818 191.361, 905.800 187.469, 898.857 183.927 C 894.084 181.492, 888.366 181.470, 884.500 183.871 M 671.530 186.224 C 665.407 189.781, 662.734 194.407, 663.230 200.592 C 663.476 203.654, 664.496 206.888, 665.790 208.705 C 666.973 210.366, 667.617 212.050, 667.220 212.446 C 666.824 212.842, 666.950 213.040, 667.500 212.885 C 668.957 212.475, 673 213.995, 673 214.953 C 673 215.846, 680.842 215.483, 684.327 214.428 C 689.801 212.771, 694 206.376, 694 199.698 C 694 188.225, 681.249 180.579, 671.530 186.224 M 62.104 186.914 C 61.215 187.478, 60.979 188.469, 61.454 189.649 C 62.140 191.349, 62.273 191.311, 63.092 189.186 C 63.629 187.790, 64.445 187.157, 65.146 187.590 C 65.870 188.037, 66.039 187.873, 65.595 187.155 C 64.747 185.781, 63.978 185.728, 62.104 186.914 M 128.012 204.250 C 128.019 204.938, 127.890 213.398, 127.726 223.052 L 127.429 240.604 134.214 240.634 C 137.946 240.651, 141 240.304, 141 239.863 C 141 239.423, 140.438 239.279, 139.750 239.543 C 138.773 239.918, 138.549 235.982, 138.723 221.511 L 138.947 203 133.473 203 C 129.755 203, 128.004 203.401, 128.012 204.250 M 130.575 258.917 C 129.191 260.446, 129.066 261.255, 129.955 262.917 C 132.150 267.018, 138.718 264.379, 137.215 260 C 136.063 256.645, 133.073 256.157, 130.575 258.917" stroke="none" fill="#fbfbfb" fill-rule="evenodd"/></svg>