<svg xmlns="http://www.w3.org/2000/svg" width="666" height="375" viewBox="0 0 666 375" version="1.1"><path d="M 173.300 119 C 173.300 122.025, 173.487 123.263, 173.716 121.750 C 173.945 120.237, 173.945 117.763, 173.716 116.250 C 173.487 114.737, 173.300 115.975, 173.300 119 M 369.452 151 C 369.452 171.075, 369.585 179.288, 369.749 169.250 C 369.912 159.213, 369.912 142.788, 369.749 132.750 C 369.585 122.713, 369.452 130.925, 369.452 151 M 400.310 120.500 C 400.315 123.800, 400.502 125.029, 400.725 123.232 C 400.947 121.435, 400.943 118.735, 400.715 117.232 C 400.486 115.729, 400.304 117.200, 400.310 120.500 M 362.413 133.500 C 362.414 143.400, 362.564 147.315, 362.746 142.199 C 362.928 137.084, 362.927 128.984, 362.744 124.199 C 362.561 119.415, 362.412 123.600, 362.413 133.500 M 446.272 129 C 446.272 131.475, 446.467 132.488, 446.706 131.250 C 446.944 130.012, 446.944 127.987, 446.706 126.750 C 446.467 125.513, 446.272 126.525, 446.272 129 M 461.300 132 C 461.300 135.025, 461.487 136.262, 461.716 134.750 C 461.945 133.238, 461.945 130.762, 461.716 129.250 C 461.487 127.737, 461.300 128.975, 461.300 132 M 439.272 132 C 439.272 134.475, 439.467 135.488, 439.706 134.250 C 439.944 133.012, 439.944 130.988, 439.706 129.750 C 439.467 128.512, 439.272 129.525, 439.272 132 M 473.252 131.500 C 473.263 133.700, 473.468 134.482, 473.707 133.238 C 473.946 131.994, 473.937 130.194, 473.687 129.238 C 473.437 128.282, 473.241 129.300, 473.252 131.500 M 351.336 136 C 351.336 140.125, 351.513 141.813, 351.728 139.750 C 351.944 137.688, 351.944 134.313, 351.728 132.250 C 351.513 130.188, 351.336 131.875, 351.336 136 M 486.768 135.725 C 488.565 135.947, 491.265 135.943, 492.768 135.715 C 494.271 135.486, 492.800 135.304, 489.500 135.310 C 486.200 135.315, 484.971 135.502, 486.768 135.725 M 440.252 141.500 C 440.263 143.700, 440.468 144.482, 440.707 143.238 C 440.946 141.994, 440.937 140.194, 440.687 139.238 C 440.437 138.282, 440.241 139.300, 440.252 141.500 M 336.785 163.452 C 336.628 176.350, 336.807 186.588, 337.183 186.202 C 338.102 185.256, 338.692 139.998, 337.785 139.999 C 337.392 140, 336.942 150.553, 336.785 163.452 M 455.252 143.500 C 455.263 145.700, 455.468 146.482, 455.707 145.238 C 455.946 143.994, 455.937 142.194, 455.687 141.238 C 455.437 140.282, 455.241 141.300, 455.252 143.500 M 380.999 154.750 C 380.998 155.162, 383.585 155.373, 386.749 155.217 C 396.783 154.724, 397.767 154.305, 389.250 154.150 C 384.712 154.067, 380.999 154.338, 380.999 154.750 M 408.300 161 C 408.300 164.025, 408.487 165.262, 408.716 163.750 C 408.945 162.238, 408.945 159.762, 408.716 158.250 C 408.487 156.738, 408.300 157.975, 408.300 161 M 433.272 160 C 433.272 162.475, 433.467 163.488, 433.706 162.250 C 433.944 161.012, 433.944 158.988, 433.706 157.750 C 433.467 156.512, 433.272 157.525, 433.272 160 M 442.015 160.250 C 442.024 162.799, 442.354 163.990, 442.839 163.227 C 443.599 162.028, 443.222 156, 442.387 156 C 442.174 156, 442.007 157.912, 442.015 160.250 M 453.252 159.500 C 453.263 161.700, 453.468 162.482, 453.707 161.238 C 453.946 159.994, 453.937 158.194, 453.687 157.238 C 453.437 156.282, 453.241 157.300, 453.252 159.500 M 419 162.500 C 419 164.425, 419.450 166, 420 166 C 420.550 166, 421 164.425, 421 162.500 C 421 160.575, 420.550 159, 420 159 C 419.450 159, 419 160.575, 419 162.500 M 118.292 165.742 C 122.027 165.935, 127.877 165.934, 131.292 165.739 C 134.706 165.545, 131.650 165.387, 124.500 165.389 C 117.350 165.390, 114.556 165.550, 118.292 165.742 M 153.310 165.748 C 160.905 165.918, 173.055 165.918, 180.310 165.747 C 187.564 165.576, 181.350 165.437, 166.500 165.438 C 151.650 165.438, 145.714 165.578, 153.310 165.748 M 472.079 169.691 C 472.036 171.996, 472.356 174.102, 472.791 174.371 C 473.226 174.640, 473.418 173.204, 473.219 171.180 C 472.672 165.646, 472.168 164.987, 472.079 169.691 M 434.252 170.500 C 434.263 172.700, 434.468 173.482, 434.707 172.238 C 434.946 170.994, 434.937 169.194, 434.687 168.238 C 434.437 167.282, 434.241 168.300, 434.252 170.500 M 362.343 177.500 C 362.346 181.900, 362.522 183.576, 362.733 181.224 C 362.945 178.872, 362.942 175.272, 362.727 173.224 C 362.512 171.176, 362.339 173.100, 362.343 177.500 M 427.252 178.500 C 427.263 180.700, 427.468 181.482, 427.707 180.238 C 427.946 178.994, 427.937 177.194, 427.687 176.238 C 427.437 175.282, 427.241 176.300, 427.252 178.500 M 391.199 176.744 L 399.898 177.076 400.264 182.288 L 400.630 187.500 400.815 181.750 L 401 176 391.750 176.206 L 382.500 176.411 391.199 176.744 M 88 191.913 C 93.043 192.451, 93.526 192.722, 93.809 195.173 C 94.054 197.292, 93.640 197.937, 91.809 198.287 C 89.757 198.679, 89.806 198.743, 92.250 198.864 C 94.628 198.982, 95 198.621, 95 196.200 C 95 192.149, 93.269 190.978, 87.550 191.163 L 82.500 191.326 88 191.913 M 83.001 194.750 C 83.001 195.162, 85.026 195.631, 87.501 195.790 C 90.135 195.960, 92 195.649, 92 195.040 C 92 194.468, 89.975 194, 87.500 194 C 85.025 194, 83 194.338, 83.001 194.750 M 288 196 C 288 196.550, 289.773 197, 291.941 197 C 294.109 197, 296.160 196.550, 296.500 196 C 296.878 195.389, 295.344 195, 292.559 195 C 290.052 195, 288 195.450, 288 196 M 83.762 198.707 C 85.006 198.946, 86.806 198.937, 87.762 198.687 C 88.718 198.437, 87.700 198.241, 85.500 198.252 C 83.300 198.263, 82.518 198.468, 83.762 198.707 M 327.652 207.750 C 327.395 208.162, 329.956 208.374, 333.343 208.220 C 343.695 207.750, 344.921 207.307, 336.309 207.150 C 331.804 207.067, 327.908 207.338, 327.652 207.750 M 362 207.614 C 367.982 208.366, 375.001 208.440, 375.001 207.750 C 375 207.338, 371.512 207.067, 367.250 207.150 C 362.988 207.232, 360.625 207.441, 362 207.614 M 389.737 207.737 L 394.975 208.104 395.250 243.802 L 395.526 279.500 395.763 243.250 L 396 207 390.250 207.185 L 384.500 207.370 389.737 207.737 M 418.971 207.747 C 423.337 207.951, 426.759 208.596, 427.206 209.298 C 427.725 210.116, 427.974 209.941, 427.985 208.750 C 427.998 207.208, 427.021 207.024, 419.750 207.199 L 411.500 207.397 418.971 207.747 M 446.750 207.723 C 448.538 207.945, 451.462 207.945, 453.250 207.723 C 455.038 207.502, 453.575 207.320, 450 207.320 C 446.425 207.320, 444.962 207.502, 446.750 207.723 M 472.653 207.738 C 478.300 208.061, 478.859 208.302, 479.452 210.663 C 479.807 212.078, 480.313 213.020, 480.577 212.757 C 480.840 212.493, 480.605 211.090, 480.053 209.639 C 479.103 207.142, 478.713 207.010, 472.775 207.193 L 466.500 207.385 472.653 207.738 M 493.667 207.667 C 493.300 208.033, 493.007 208.821, 493.015 209.417 C 493.025 210.104, 493.307 210.065, 493.787 209.310 C 494.203 208.656, 497.009 207.952, 500.022 207.745 L 505.500 207.370 499.917 207.185 C 496.846 207.083, 494.033 207.300, 493.667 207.667 M 516.750 207.744 C 521.288 207.929, 528.712 207.929, 533.250 207.744 C 537.788 207.559, 534.075 207.407, 525 207.407 C 515.925 207.407, 512.212 207.559, 516.750 207.744 M 546.237 243.250 L 546.474 279.500 546.750 243.750 L 547.025 208 562.013 208 L 577 208 577 212.962 L 577 217.925 567.750 218.212 L 558.500 218.500 558.438 227.253 L 558.376 236.005 558.726 227.540 L 559.077 219.074 568.288 218.787 L 577.500 218.500 577.800 212.750 L 578.100 207 562.050 207 L 546 207 546.237 243.250 M 588.789 207.741 C 592.248 207.937, 597.648 207.936, 600.789 207.738 C 603.930 207.540, 601.100 207.380, 594.500 207.382 C 587.900 207.384, 585.330 207.546, 588.789 207.741 M 148.250 214.750 C 170.112 214.900, 205.887 214.900, 227.750 214.750 C 249.612 214.599, 231.725 214.476, 188 214.476 C 144.275 214.476, 126.387 214.599, 148.250 214.750 M 517.842 218.746 C 526.173 219.042, 527.114 219.263, 526.533 220.789 C 526.036 222.093, 526.160 222.224, 527.054 221.337 C 529.525 218.885, 526.877 218, 517.691 218.208 L 508.500 218.415 517.842 218.746 M 599.247 218.728 C 604.041 219.230, 605.266 221.482, 604.834 228.999 C 604.650 232.198, 604.837 234.605, 605.250 234.348 C 605.663 234.092, 606 231.309, 606 228.163 C 606 220.618, 604.177 217.941, 599.193 218.168 L 595.500 218.336 599.247 218.728 M 595.320 229 C 595.320 232.575, 595.502 234.037, 595.723 232.250 C 595.945 230.463, 595.945 227.537, 595.723 225.750 C 595.502 223.963, 595.320 225.425, 595.320 229 M 334 225.441 C 334 226.234, 334.450 227.160, 335 227.500 C 335.550 227.840, 336 227.191, 336 226.059 C 336 224.927, 335.550 224, 335 224 C 334.450 224, 334 224.648, 334 225.441 M 369.783 254.001 C 369.628 267.751, 369.837 279.001, 370.250 279.001 C 370.663 279, 371 267.750, 371 254 C 371 240.250, 370.790 229, 370.533 229 C 370.277 229, 369.939 240.250, 369.783 254.001 M 573.175 241.750 L 573 247 565.466 247 L 557.932 247 558.216 257.750 L 558.500 268.500 567.500 268.566 L 576.500 268.631 567.750 268.277 L 559 267.922 559 257.961 L 559 248 566.031 248 C 573.975 248, 574.343 247.660, 573.738 240.864 C 573.354 236.550, 573.347 236.560, 573.175 241.750 M 478.664 245.500 C 479.106 246.600, 479.721 254.700, 480.032 263.500 L 480.597 279.500 480.763 264 C 480.896 251.608, 480.622 247.999, 479.395 246 C 478.537 244.600, 478.215 244.380, 478.664 245.500 M 491.624 247.539 C 491.281 248.432, 491.091 255.989, 491.201 264.332 L 491.403 279.500 491.951 263 C 492.253 253.925, 492.443 246.368, 492.374 246.207 C 492.304 246.046, 491.966 246.645, 491.624 247.539 M 603.676 251 C 604.129 251.825, 604.751 258.125, 605.059 265 L 605.618 277.500 605.809 265.441 C 605.962 255.753, 605.691 253.001, 604.426 251.441 C 603.560 250.374, 603.223 250.175, 603.676 251 M 594.995 266.204 C 594.723 273.191, 594.852 278.553, 595.283 278.120 C 595.714 277.688, 595.937 271.971, 595.779 265.417 L 595.491 253.500 594.995 266.204 M 423.189 265.677 C 424.117 265.923, 425.077 266.883, 425.323 267.811 C 425.638 269.008, 425.802 268.844, 425.884 267.250 C 425.973 265.518, 425.482 265.027, 423.750 265.116 C 422.156 265.198, 421.992 265.362, 423.189 265.677 M 460.750 268.732 C 463.087 268.943, 466.913 268.943, 469.250 268.732 C 471.587 268.522, 469.675 268.349, 465 268.349 C 460.325 268.349, 458.413 268.522, 460.750 268.732 M 507.300 273 C 507.300 276.025, 507.487 277.262, 507.716 275.750 C 507.945 274.238, 507.945 271.762, 507.716 270.250 C 507.487 268.738, 507.300 269.975, 507.300 273 M 527.776 268.733 C 530.128 268.945, 533.728 268.942, 535.776 268.727 C 537.824 268.512, 535.900 268.339, 531.500 268.343 C 527.100 268.346, 525.424 268.522, 527.776 268.733 M 577.300 273 C 577.300 276.025, 577.487 277.262, 577.716 275.750 C 577.945 274.238, 577.945 271.762, 577.716 270.250 C 577.487 268.738, 577.300 269.975, 577.300 273 M 173.300 274 C 173.300 277.025, 173.487 278.262, 173.716 276.750 C 173.945 275.238, 173.945 272.762, 173.716 271.250 C 173.487 269.738, 173.300 270.975, 173.300 274 M 474.286 273.500 C 474.294 276.250, 474.488 277.256, 474.718 275.736 C 474.947 274.216, 474.941 271.966, 474.704 270.736 C 474.467 269.506, 474.279 270.750, 474.286 273.500" stroke="none" fill="#9f9f9f" fill-rule="evenodd"/><path d="M 187.607 87.582 C 186.585 90.245, 186.926 92.694, 188.500 94 C 189.325 94.685, 189.964 95.977, 189.921 96.872 C 189.870 97.918, 189.661 98.051, 189.336 97.244 C 188.689 95.641, 187 96.640, 187 98.625 C 187 99.680, 187.826 100.038, 189.750 99.816 C 193.279 99.410, 193.937 95.922, 191.066 92.840 C 189.930 91.621, 189.014 89.920, 189.032 89.061 C 189.057 87.806, 189.349 87.877, 190.521 89.427 C 192.275 91.745, 193.439 90.959, 192.524 88.075 C 191.749 85.634, 188.480 85.306, 187.607 87.582 M 164.193 90.752 C 141.455 96.212, 115.864 113.429, 103.229 131.768 C 89.890 151.131, 84.899 163.781, 82.523 184.250 L 81.856 190 87.959 190 C 91.985 190, 94.184 189.574, 94.420 188.750 C 94.724 187.686, 95.841 182.172, 98.696 167.653 C 99.200 165.086, 104.949 152.099, 106.767 149.419 C 107.170 148.824, 109.252 145.674, 111.394 142.419 C 118.955 130.926, 134.974 117.011, 148.500 110.188 C 157.749 105.521, 176.393 100.059, 183.250 100.006 C 183.662 100.003, 184 97.277, 184 93.950 L 184 87.899 178.786 88.200 C 175.918 88.365, 169.351 89.513, 164.193 90.752 M 195.750 88.572 C 194.639 89.700, 194.840 98.783, 195.992 99.495 C 196.538 99.833, 199.790 100.560, 203.218 101.112 C 243.903 107.665, 277.433 141.187, 284.049 181.925 L 285.360 190 291.795 190 L 298.230 190 297.527 184.250 C 296.192 173.333, 291.650 156.838, 289.063 153.512 C 288.630 152.955, 287.980 151.260, 287.618 149.745 C 286.639 145.648, 274.648 128.343, 268.165 121.670 C 255.558 108.694, 234.527 95.671, 220.500 92.153 C 218.300 91.601, 214.700 90.692, 212.500 90.132 C 206.584 88.627, 196.611 87.698, 195.750 88.572 M 183.440 111.296 C 183.166 112.009, 183.068 119.096, 183.221 127.046 L 183.500 141.500 189.500 141.500 L 195.500 141.500 195.775 126.380 L 196.051 111.260 192.900 110.630 C 187.865 109.623, 183.977 109.897, 183.440 111.296 M 166 113.456 C 152.980 117.217, 138.804 126.121, 127.721 137.500 C 121.130 144.267, 109.670 163.003, 111.191 164.524 C 111.503 164.837, 129.598 165.072, 151.402 165.047 C 174.705 165.020, 192.908 165.419, 195.565 166.015 C 201.681 167.385, 206.676 170.889, 211.698 177.331 C 214.567 181.011, 217.892 183.787, 222.198 186.095 L 228.500 189.473 251.750 189.803 C 278.190 190.178, 275.754 191.178, 274.032 180.659 C 272.768 172.940, 267.778 160.169, 262.654 151.539 C 254.473 137.760, 236.377 122.390, 221.817 116.855 C 214.359 114.020, 207.223 112.111, 206.560 112.773 C 206.252 113.081, 206 115.916, 206 119.074 L 206 124.814 211.643 126.589 C 214.747 127.565, 220.934 130.552, 225.393 133.226 C 240.702 142.407, 251.850 155.864, 257.306 171.750 L 258.766 176 251.133 176.172 C 236.065 176.511, 234.343 176.344, 229.688 174.091 C 226.635 172.613, 223.335 169.691, 220.035 165.544 C 216.140 160.649, 213.513 158.490, 208.260 155.871 L 201.500 152.500 167 151.969 C 148.025 151.676, 132.950 151.336, 133.500 151.212 C 134.050 151.088, 135.625 149.335, 137 147.316 C 139.207 144.075, 150.937 134.531, 155 132.670 C 155.825 132.292, 157.850 131.159, 159.500 130.153 C 161.150 129.147, 164.863 127.540, 167.750 126.581 L 173 124.839 173 119.420 C 173 116.439, 173.024 113.662, 173.053 113.250 C 173.140 112.012, 170.759 112.082, 166 113.456 M 474.500 114.700 C 470.001 115.681, 465.769 118.332, 463.964 121.299 C 462.391 123.886, 462.101 125.997, 462.338 133.134 C 462.672 143.234, 463.622 144.904, 475.383 156.079 C 482.108 162.469, 482.321 162.821, 482.777 168.327 C 483.318 174.846, 482.139 177, 478.033 177 C 474.204 177, 472 174.140, 472 169.171 L 472 165 466.401 165 L 460.803 165 461.283 170.750 C 462.093 180.446, 464.211 183.789, 471.235 186.460 C 479.174 189.478, 487.955 187.209, 492.035 181.084 C 494.054 178.052, 494.421 176.269, 494.418 169.500 C 494.415 162.535, 494.050 160.881, 491.602 156.715 C 490.055 154.083, 486.572 150.033, 483.860 147.715 C 474.699 139.881, 470.597 130.545, 474.571 126.571 C 476.550 124.593, 480.375 124.542, 481.978 126.473 C 482.650 127.283, 483.200 129.533, 483.200 131.473 L 483.200 135 489.215 135 L 495.230 135 494.519 129.307 C 493.760 123.233, 490.770 118.199, 486.767 116.256 C 484.067 114.946, 477.305 114.088, 474.500 114.700 M 326.667 115.667 C 326.300 116.033, 326 132.257, 326 151.719 L 326 187.105 331.250 186.802 L 336.500 186.500 336.768 163.250 C 336.942 148.207, 337.399 140, 338.062 140 C 338.626 140, 338.977 140.563, 338.842 141.250 C 338.548 142.749, 340.917 152.825, 342.108 155.139 C 342.572 156.040, 343.061 158.212, 343.194 159.965 C 343.328 161.718, 343.789 163.369, 344.219 163.635 C 344.648 163.901, 345 165.141, 345 166.391 C 345 167.641, 345.864 171.551, 346.920 175.082 C 347.976 178.612, 349.115 182.759, 349.451 184.297 C 350.047 187.025, 350.210 187.086, 356.059 186.797 L 362.056 186.500 362.278 169 C 362.400 159.375, 362.387 143.264, 362.250 133.198 L 362 114.895 356.887 115.198 L 351.774 115.500 351.747 133.168 C 351.732 142.885, 351.384 151.379, 350.974 152.042 C 350.552 152.726, 349.478 149.839, 348.494 145.374 C 347.540 141.043, 345.927 134.575, 344.909 131 C 343.891 127.425, 342.502 122.362, 341.822 119.750 L 340.585 115 333.959 115 C 330.315 115, 327.033 115.300, 326.667 115.667 M 370 151 L 370 187 385 187 L 400 187 400 182 L 400 177 391.750 176.985 C 387.212 176.976, 383.050 176.639, 382.500 176.235 C 381.941 175.824, 381.500 170.760, 381.500 164.750 L 381.500 154 389.250 154 L 397 154 397 149 L 397 144 389.250 144 L 381.500 144 381.500 135 L 381.500 126.001 390.750 126 L 400 126 400 120.500 L 400 115 385 115 L 370 115 370 151 M 404 117.341 C 404 118.629, 404.458 123.466, 405.017 128.091 C 405.576 132.716, 406.686 141.900, 407.484 148.500 C 409.025 161.249, 410.177 172.568, 410.437 177.500 C 410.524 179.150, 410.686 181.963, 410.797 183.750 L 411 187 418.439 187 L 425.877 187 426.496 182.250 C 426.836 179.637, 427.515 175.475, 428.005 173 C 428.495 170.525, 429.170 164.450, 429.505 159.500 C 429.840 154.550, 430.409 148.925, 430.771 147 L 431.428 143.500 432.220 148.500 C 432.655 151.250, 433.262 156.200, 433.569 159.500 C 434.911 173.928, 436.104 184.593, 436.505 185.750 C 436.792 186.579, 439.147 187, 443.500 187 C 447.866 187, 450.199 186.582, 450.471 185.750 C 451.383 182.957, 452.947 169.711, 453.040 164 C 453.071 162.075, 453.524 157.125, 454.047 153 C 457.177 128.300, 458 121.050, 458 118.194 C 458 115.035, 457.946 115, 453.080 115 L 448.159 115 447.560 121.750 C 447.230 125.463, 446.535 131.425, 446.015 135 C 445.495 138.575, 444.769 146, 444.402 151.500 C 443.645 162.837, 442.078 167.718, 442.030 158.886 C 442.014 155.799, 441.540 150.849, 440.978 147.886 C 440.416 144.924, 439.705 138.675, 439.399 134 C 439.093 129.325, 438.695 123.925, 438.515 122 C 438.334 120.075, 438.145 117.713, 438.093 116.750 C 438.015 115.287, 437.011 115, 431.975 115 C 424.649 115, 424.494 115.266, 423.499 129.564 C 423.118 135.029, 422.579 141.075, 422.300 143 C 421.798 146.465, 421.539 150.580, 421.183 160.750 C 420.855 170.150, 419.265 166.283, 418.717 154.750 C 418.145 142.740, 416.247 120.971, 415.446 117.250 C 415.016 115.249, 414.355 115, 409.481 115 C 404.401 115, 404 115.171, 404 117.341 M 106.060 181.157 C 103.945 191.019, 98.817 190, 150.546 190 L 196.091 190 195.796 183.250 L 195.500 176.500 151.310 176.358 L 107.120 176.215 106.060 181.157 M 80.999 195.202 C 80.998 198.496, 81.004 198.500, 85.749 198.314 C 88.362 198.211, 91.317 198.099, 92.316 198.064 C 93.697 198.015, 94.057 197.340, 93.816 195.250 C 93.513 192.614, 93.240 192.488, 87.250 192.202 L 81 191.905 80.999 195.202 M 285.912 195.250 C 286.503 198.164, 286.971 198.533, 290.440 198.820 C 296.870 199.351, 299 198.396, 299 194.981 L 299 192 292.126 192 L 285.253 192 285.912 195.250 M 83 195 C 83 195.550, 85.025 196, 87.500 196 C 89.975 196, 92 195.550, 92 195 C 92 194.450, 89.975 194, 87.500 194 C 85.025 194, 83 194.450, 83 195 M 288 196 C 288 196.550, 289.773 197, 291.941 197 C 294.109 197, 296.160 196.550, 296.500 196 C 296.878 195.389, 295.344 195, 292.559 195 C 290.052 195, 288 195.450, 288 196 M 107.750 200.748 C 104.748 201.168, 104.426 202.747, 105.808 210.271 L 106.500 214.042 187.750 214.030 C 232.438 214.023, 270.081 214.014, 271.402 214.009 C 273.595 214.001, 273.865 213.472, 274.507 207.939 C 274.894 204.605, 275.001 201.668, 274.746 201.412 C 274.182 200.849, 111.650 200.202, 107.750 200.748 M 81.006 201.750 C 81.009 202.162, 81.427 204.075, 81.935 206 C 82.443 207.925, 83.115 212.200, 83.428 215.500 C 84.719 229.120, 91.279 245.465, 100.886 259 C 110.870 273.066, 125.871 285.800, 141.500 293.475 C 155.361 300.282, 161.169 301.948, 179.798 304.460 L 184.096 305.039 183.798 298.798 L 183.500 292.557 176.500 291.350 C 162.313 288.903, 157.269 287.255, 146.500 281.549 C 137.314 276.683, 129.987 271.177, 121.936 263.092 C 113.777 254.899, 109.167 248.528, 104.464 238.948 C 98.691 227.186, 98.914 227.908, 96.320 212.500 C 95.486 207.550, 94.638 202.938, 94.434 202.250 C 94.029 200.886, 80.996 200.401, 81.006 201.750 M 284.158 210.911 C 283.477 216.363, 281.843 223.574, 280.525 226.937 C 279.207 230.299, 278.105 233.267, 278.076 233.531 C 277.916 234.980, 271.510 246.649, 268.735 250.544 C 263.266 258.222, 251.915 269.472, 243.163 275.888 C 238.578 279.250, 234.258 282, 233.562 282 C 232.867 282, 230.318 283.049, 227.899 284.330 C 222.926 286.964, 210.146 290.574, 202.172 291.595 C 197.685 292.171, 196.692 292.681, 195.874 294.833 C 195.339 296.238, 195.037 298.987, 195.201 300.944 C 195.500 304.496, 195.505 304.500, 200 304.218 C 227.691 302.484, 254.916 288.036, 273.902 265 C 275.036 263.625, 276.451 261.925, 277.047 261.222 C 279.977 257.768, 286.270 247.502, 287.474 244.211 C 288.221 242.170, 289.767 238.617, 290.908 236.315 C 292.737 232.628, 293.874 228.046, 298.022 207.660 C 298.563 204.998, 298.753 202.410, 298.444 201.910 C 298.135 201.409, 295.072 201, 291.638 201 L 285.395 201 284.158 210.911 M 327.547 209.250 C 326.886 211.364, 325.905 217.884, 325.430 223.322 C 325.181 226.170, 324.697 229.625, 324.356 231 C 323.206 235.623, 319.686 257.444, 317.459 273.750 L 316.742 279 321.871 279 C 324.692 279, 327.040 278.663, 327.088 278.250 C 327.136 277.837, 327.385 275.250, 327.640 272.500 C 327.895 269.750, 328.554 267.050, 329.103 266.500 C 329.653 265.950, 332.547 265.500, 335.535 265.500 L 340.968 265.500 342.091 271 C 342.709 274.025, 343.377 277.063, 343.576 277.750 C 343.802 278.534, 345.790 279, 348.902 279 C 353.573 279, 353.887 278.837, 354.194 276.250 C 354.374 274.738, 354.149 271.475, 353.693 269 C 351.677 258.044, 349.723 246.367, 347.419 231.500 C 346.055 222.700, 344.668 213.813, 344.338 211.750 L 343.737 208 335.837 208 C 330.392 208, 327.816 208.388, 327.547 209.250 M 359 242.939 L 359 277.962 361.379 278.559 C 362.688 278.887, 365.050 279.009, 366.629 278.828 L 369.500 278.500 370 253.500 C 370.361 235.460, 370.740 229.753, 371.363 233 C 371.838 235.475, 372.603 237.969, 373.064 238.543 C 373.525 239.117, 374.117 241.367, 374.379 243.543 C 374.642 245.719, 374.946 247.613, 375.054 247.750 C 375.162 247.887, 375.363 248.450, 375.500 249 C 375.637 249.550, 375.863 250.225, 376 250.500 C 376.137 250.775, 376.345 251.338, 376.461 251.750 C 376.578 252.162, 376.934 253.175, 377.252 254 C 377.571 254.825, 377.825 256.175, 377.816 257 C 377.807 257.825, 379.117 263, 380.726 268.500 L 383.652 278.500 389.326 278.800 L 395 279.100 395 243.550 L 395 208 390.021 208 L 385.042 208 384.771 227.750 L 384.500 247.500 382.671 240.500 C 381.665 236.650, 380.484 231.700, 380.047 229.500 C 379.342 225.954, 378.415 222.489, 375.231 211.500 C 374.373 208.539, 374.261 208.496, 366.681 208.208 L 359 207.916 359 242.939 M 409.626 221.250 C 408.643 228.537, 407.235 237.200, 406.497 240.500 C 405.759 243.800, 404.644 250.775, 404.020 256 C 403.396 261.225, 402.625 266.175, 402.306 267 C 401.986 267.825, 401.547 270.300, 401.328 272.500 C 401.110 274.700, 400.727 277.085, 400.478 277.800 C 400.133 278.789, 401.396 279.027, 405.762 278.800 L 411.500 278.500 412.011 273 C 412.291 269.975, 412.865 266.963, 413.284 266.307 C 413.745 265.587, 416.383 265.147, 419.936 265.197 L 425.825 265.281 426.514 272.140 L 427.203 279 433.101 279 C 436.346 279, 439 278.848, 439 278.663 C 439 277.577, 435.798 258.176, 434.435 251 C 433.547 246.325, 432.438 239.350, 431.971 235.500 C 431.078 228.134, 428.351 212.724, 427.416 209.750 C 426.954 208.282, 425.621 208, 419.139 208 L 411.413 208 409.626 221.250 M 444 243.500 L 444 279 459 279 L 474 279 474.002 273.750 L 474.003 268.500 465.252 268.500 L 456.500 268.500 456.235 238.250 L 455.971 208 449.985 208 L 444 208 444 243.500 M 468.545 212.750 C 469.233 215.363, 470.537 219.525, 471.442 222 C 472.347 224.475, 473.800 228.750, 474.670 231.500 C 475.539 234.250, 477.189 238.975, 478.335 242 C 480.051 246.529, 480.478 250.280, 480.757 263.250 L 481.095 279 486 279 L 490.905 279 491.256 263.250 C 491.597 247.927, 492.499 242.901, 496.007 236.764 C 496.553 235.809, 497 233.703, 497 232.085 C 497 230.467, 497.563 228.548, 498.250 227.821 C 498.938 227.095, 499.660 225.375, 499.854 224 C 500.049 222.625, 500.824 220.310, 501.576 218.855 C 502.328 217.400, 503.358 214.363, 503.865 212.105 L 504.787 208 499.476 208 L 494.164 208 491.417 216.248 C 489.907 220.785, 488.553 225.566, 488.410 226.874 C 488.137 229.360, 486.405 231.739, 485.517 230.850 C 485.232 230.566, 484.840 229.021, 484.645 227.417 C 484.450 225.812, 483.025 220.787, 481.480 216.250 L 478.669 208 472.981 208 L 467.293 208 468.545 212.750 M 508.265 213 L 508.316 218 517.599 218 C 527.150 218, 528.739 218.617, 527.145 221.709 C 524.548 226.746, 521 235.012, 521 236.025 C 521 236.658, 519.650 240.093, 518 243.658 C 516.350 247.223, 515 250.516, 515 250.977 C 515 251.437, 513.572 254.893, 511.827 258.657 C 509.707 263.231, 508.460 267.739, 508.067 272.250 L 507.480 279 524.240 279 L 541 279 541 273.750 L 541.001 268.500 531.250 268.642 C 525.888 268.720, 521.138 268.566, 520.696 268.300 C 520.253 268.033, 520.591 266.746, 521.447 265.441 C 522.302 264.135, 523.159 262.264, 523.351 261.283 C 523.743 259.278, 524.469 257.370, 527.147 251.305 C 528.166 248.998, 529 246.835, 529 246.499 C 529 246.164, 530.639 241.976, 532.642 237.194 C 534.646 232.412, 536.918 226.925, 537.691 225 C 538.464 223.075, 539.525 220.719, 540.048 219.764 C 540.572 218.809, 541 215.771, 541 213.014 L 541 208 524.607 208 L 508.215 208 508.265 213 M 547 243.500 L 547 279 562.250 279.001 L 577.500 279.003 577.173 273.751 L 576.847 268.500 567.673 268.500 L 558.500 268.500 558.216 257.750 L 557.932 247 565.466 247 L 573 247 573 241.500 L 573 236 565.461 236 L 557.922 236 558.211 227.250 L 558.500 218.500 567.750 218.212 L 577 217.925 577 212.962 L 577 208 562 208 L 547 208 547 243.500 M 583 243.500 L 583 279 588.441 279 C 591.434 279, 594.092 278.660, 594.349 278.245 C 594.605 277.829, 594.961 271.079, 595.140 263.245 L 595.464 249 598.541 249 C 604.804 249, 605.446 250.391, 606 265.166 L 606.500 278.500 612 278.792 L 617.500 279.085 617.354 266.792 C 617.175 251.699, 616.467 247.739, 613.399 244.672 L 611.009 242.282 613.429 239.671 C 617.332 235.460, 618.077 222.040, 614.864 213.822 C 613.189 209.537, 607.808 208, 594.480 208 L 583 208 583 243.500 M 595.733 218.750 C 595.522 219.162, 595.285 223.662, 595.207 228.750 L 595.066 238 597.898 238 C 599.456 238, 601.916 237.067, 603.365 235.927 C 605.662 234.121, 606 233.122, 606 228.150 C 606 220.886, 604.153 218, 599.502 218 C 597.641 218, 595.945 218.338, 595.733 218.750 M 333.147 235.750 C 332.447 242.213, 331.756 248.509, 331.611 249.743 C 331.466 250.976, 331.045 252.289, 330.674 252.659 C 329.035 254.299, 330.355 255, 335.079 255 C 340.099 255, 340.152 254.967, 339.561 252.250 C 338.045 245.269, 337.144 237.789, 337.658 236.449 C 337.969 235.638, 337.708 234.353, 337.077 233.593 C 336.446 232.832, 335.999 231.826, 336.083 231.355 C 336.502 229.024, 335.905 224, 335.209 224 C 334.774 224, 333.846 229.287, 333.147 235.750 M 417.626 234.746 C 416.691 240.661, 415.548 247.448, 415.084 249.828 C 414.130 254.733, 414.745 255.339, 420.144 254.820 L 423.478 254.500 423.255 249.122 C 423.133 246.164, 422.615 243.239, 422.105 242.622 C 421.594 242.005, 421.194 240.375, 421.216 239 C 421.268 235.733, 420.112 224.778, 419.669 224.335 C 419.479 224.146, 418.560 228.831, 417.626 234.746 M 110 226.278 C 110 229.193, 117.308 242.488, 122.358 248.761 C 134.307 263.605, 147.601 273.017, 163.594 277.956 C 173.111 280.896, 173 280.941, 173 274.137 L 173 268.274 164.028 264.512 C 159.093 262.442, 152.440 258.846, 149.243 256.520 C 143.700 252.487, 131.579 240.088, 132.388 239.279 C 132.688 238.978, 213.046 238.743, 242.334 238.957 L 248.168 239 244.862 243.250 C 243.044 245.588, 240.644 248.315, 239.528 249.311 C 234.899 253.443, 232.954 255, 232.421 255 C 232.111 255, 231.230 255.563, 230.463 256.250 C 229.697 256.938, 228.377 258.082, 227.530 258.794 C 225.729 260.308, 215.153 265.141, 209.750 266.920 L 206 268.155 206 274.191 L 206 280.227 208.750 279.709 C 228.838 275.924, 246.561 263.884, 260.364 244.646 C 264.758 238.521, 270 228.085, 270 225.462 C 270 225.208, 234 225, 190 225 C 125.725 225, 110 225.251, 110 226.278 M 183.667 249.667 C 183.300 250.033, 183 257.458, 183 266.167 L 183 282 189.500 282 L 196 282 196 265.500 L 196 249 190.167 249 C 186.958 249, 184.033 249.300, 183.667 249.667 M 187.607 297.582 C 186.427 300.656, 186.983 302, 189.433 302 C 191.913 302, 193.748 299.020, 192.506 297.009 C 191.536 295.441, 188.283 295.821, 187.607 297.582" stroke="none" fill="#fbfbfb" fill-rule="evenodd"/></svg>